<?xml version="1.0" encoding="UTF-8"?>
<svg version="1.1" xmlns="http://www.w3.org/2000/svg" width="500" height="500">
<path d="M0 0 C165 0 330 0 500 0 C500 165 500 330 500 500 C335 500 170 500 0 500 C0 335 0 170 0 0 Z " fill="none" transform="translate(0,0)"/>
<path d="M0 0 C0.33 0 0.66 0 1 0 C0.26438153 10.00855545 -1.70770681 19.77717033 -3.5625 29.625 C-3.8955625 31.41008535 -4.22824804 33.19524108 -4.56054688 34.98046875 C-5.36935085 39.3211367 -6.18326152 43.66081831 -7 48 C-6.06986084 48.30164063 -5.13972168 48.60328125 -4.18139648 48.9140625 C11.24119533 54.17840817 25.82717406 65.44270343 38 76 C38.7940625 76.68320313 39.588125 77.36640625 40.40625 78.0703125 C42.98183617 80.33649384 45.49819078 82.65253482 48 85 C48.52996582 85.4959668 49.05993164 85.99193359 49.60595703 86.50292969 C80.10398982 115.28582903 99.66975479 154.88471455 107 196 C107.33644531 197.80404297 107.33644531 197.80404297 107.6796875 199.64453125 C115.72005491 251.3562093 101.27841193 305.25336522 70.66796875 347.1953125 C65.33343289 354.36220089 59.5837185 361.06372778 53.41210938 367.52050781 C52.4756544 368.5016484 51.54457769 369.48795247 50.61914062 370.47949219 C24.86338412 398.03342916 -11.06738083 416.68691467 -47.6875 424.8125 C-48.56438477 425.0074707 -49.44126953 425.20244141 -50.34472656 425.40332031 C-64.70041519 428.38379466 -79.05911198 429.41382133 -93.6875 429.375 C-94.85963547 429.37418427 -94.85963547 429.37418427 -96.05545044 429.37335205 C-109.06423114 429.33196236 -121.36603825 428.28145317 -134 425 C-134.9079834 424.76974121 -135.8159668 424.53948242 -136.75146484 424.30224609 C-147.15165019 421.61989419 -157.2530058 418.56070536 -167 414 C-166.67 413.34 -166.34 412.68 -166 412 C-165.45617676 412.18248291 -164.91235352 412.36496582 -164.35205078 412.55297852 C-161.90263345 413.37250858 -159.45168498 414.18727902 -157 415 C-156.2584668 415.2460498 -155.51693359 415.49209961 -154.75292969 415.74560547 C-136.64155941 421.67142697 -118.08978369 425.49337092 -99 426 C-98.33774414 426.03109863 -97.67548828 426.06219727 -96.99316406 426.09423828 C-76.44450716 427.04037033 -54.61684318 424.21094713 -35 418 C-34.13213867 417.72671875 -33.26427734 417.4534375 -32.37011719 417.171875 C-19.67550759 413.1054646 -7.68742141 408.40563658 4 402 C5.16402344 401.38640625 6.32804687 400.7728125 7.52734375 400.140625 C21.14104451 392.7288914 33.34654977 383.24924088 44.46972656 372.47900391 C45.53307926 371.45127725 46.60326912 370.43059677 47.67871094 369.41552734 C83.07365901 335.98477187 104.59783704 286.38478777 106.06640625 237.80322266 C106.51900534 219.68040068 105.41180007 201.62648759 101 184 C100.73574219 182.78957031 100.47148437 181.57914063 100.19921875 180.33203125 C92.58399711 146.88544106 74.93596605 117.10734868 51.36474609 92.43212891 C50.05051533 91.05300947 48.75339339 89.65764787 47.45703125 88.26171875 C37.50960676 77.86282265 25.95405162 69.30210654 13.8125 61.625 C13.23282471 61.25689209 12.65314941 60.88878418 12.0559082 60.50952148 C5.61379548 56.55902814 -1.22282082 53.32716231 -8 50 C-8.22550537 51.3765979 -8.22550537 51.3765979 -8.45556641 52.78100586 C-11.29340199 70.06220193 -14.18566315 87.33095738 -17.3125 104.5625 C-17.50540619 105.63152054 -17.50540619 105.63152054 -17.70220947 106.72213745 C-18.06575796 108.73320647 -18.43317635 110.74357475 -18.80078125 112.75390625 C-19.00872314 113.89158447 -19.21666504 115.0292627 -19.4309082 116.20141602 C-20 119 -20 119 -21 122 C-20.46761719 122.23589844 -19.93523437 122.47179687 -19.38671875 122.71484375 C6.97793443 136.91119546 24.42333816 166.25467072 33 194 C33.2259082 194.71897461 33.45181641 195.43794922 33.68457031 196.17871094 C42.9868832 227.28644543 36.94856568 262.66246142 21.99121094 290.90478516 C17.76640256 298.52637251 12.67923186 305.41168246 7 312 C6.20078125 312.94488281 5.4015625 313.88976562 4.578125 314.86328125 C-12.09160686 334.11524893 -32.8791722 345.56279115 -57 353 C-58.09957031 353.350625 -59.19914063 353.70125 -60.33203125 354.0625 C-70.47476803 356.65489279 -80.30087398 357.3589937 -90.75 357.3125 C-91.41052368 357.31034485 -92.07104736 357.3081897 -92.75158691 357.30596924 C-102.85619477 357.25312151 -112.23616465 356.77619782 -122 354 C-123.05670898 353.70198486 -123.05670898 353.70198486 -124.13476562 353.39794922 C-154.48001786 344.62935361 -182.10508784 326.07208544 -199 299 C-199.96679688 297.46666016 -199.96679688 297.46666016 -200.953125 295.90234375 C-212.80123702 276.20824916 -219.17668052 254.59874042 -219.24023438 231.62402344 C-219.24984927 229.532784 -219.28089292 227.44256843 -219.3125 225.3515625 C-219.41193255 212.81797377 -217.39671578 200.9577606 -213.3125 189.0625 C-213.05976318 188.31798584 -212.80702637 187.57347168 -212.54663086 186.80639648 C-206.31360002 169.10773632 -196.45598545 153.91522417 -184 140 C-183.04867187 138.92105469 -183.04867187 138.92105469 -182.078125 137.8203125 C-163.37401672 117.8747811 -138.22770499 107.48167468 -112 102 C-111.25387451 101.80825195 -110.50774902 101.61650391 -109.73901367 101.41894531 C-106.26795839 100.88803071 -103.00202838 101.21488359 -99.53125 101.53515625 C-84.51198981 103.14322927 -84.51198981 103.14322927 -70.34521484 99.52783203 C-66.15184263 95.58774395 -63.72484691 90.69643132 -61.29101562 85.54443359 C-59.15217813 81.329047 -56.2833843 77.6949437 -53.4375 73.9375 C-52.36020448 72.45629992 -51.2872664 70.97192064 -50.21875 69.484375 C-49.69023437 68.75025391 -49.16171875 68.01613281 -48.6171875 67.25976562 C-45.36656076 62.71752513 -42.15574216 58.14686689 -38.95678711 53.56811523 C-36.92995825 50.67775182 -34.89972263 47.87762478 -32.66015625 45.14453125 C-30.79595195 43.18842374 -30.79595195 43.18842374 -31 41 C-62.84573463 32.0676598 -96.17105571 28.32904126 -128.81298828 35.52001953 C-130.34568374 35.85639811 -131.88076807 36.18198863 -133.41748047 36.49951172 C-162.0763549 42.43783705 -188.88879025 55.00692836 -212 73 C-212.85247314 73.66201416 -212.85247314 73.66201416 -213.72216797 74.33740234 C-227.75187976 85.39249949 -240.85162767 98.27499137 -251 113 C-251.44150391 113.64018066 -251.88300781 114.28036133 -252.33789062 114.93994141 C-265.40792087 134.11084242 -274.61032313 153.68937825 -281 176 C-281.5259375 177.80597656 -281.5259375 177.80597656 -282.0625 179.6484375 C-295.88288541 228.93437075 -286.96868858 283.60654356 -262.21264648 327.90209961 C-257.9498946 335.31248101 -253.2108216 342.23023838 -248 349 C-247.35417969 349.86882812 -246.70835937 350.73765625 -246.04296875 351.6328125 C-231.1212793 370.88090895 -212.37424273 387.04038051 -191.26953125 399.09765625 C-188.07973347 400.95360789 -185.04794598 402.92332664 -182 405 C-182.33 405.66 -182.66 406.32 -183 407 C-193.55073944 401.32726477 -203.45891029 395.24775978 -213 388 C-213.88558594 387.34 -214.77117187 386.68 -215.68359375 386 C-229.83240651 374.97383237 -242.58660004 361.5904792 -253 347 C-253.41121094 346.43313477 -253.82242188 345.86626953 -254.24609375 345.28222656 C-284.63783777 303.03202167 -297.51662607 249.14727077 -289.375 197.6875 C-280.18614758 145.76881618 -252.07833284 97.90910371 -209 67 C-208.44231934 66.59265625 -207.88463867 66.1853125 -207.31005859 65.765625 C-164.92349838 35.07149031 -112.00445942 22.96797025 -60.4375 30.75 C-49.16630865 32.57580117 -37.56364055 34.52924576 -27 39 C-26.72994141 38.26064209 -26.45988281 37.52128418 -26.18164062 36.75952148 C-25.04861581 34.113534 -23.81790987 32.13813215 -22.09375 29.84765625 C-21.51906982 29.07728027 -20.94438965 28.3069043 -20.35229492 27.51318359 C-19.43540894 26.30009521 -19.43540894 26.30009521 -18.5 25.0625 C-17.23480395 23.3691416 -15.97048839 21.675125 -14.70703125 19.98046875 C-13.76851318 18.72435791 -13.76851318 18.72435791 -12.81103516 17.44287109 C-9.79254812 13.37129098 -6.85984003 9.23991543 -3.93359375 5.10180664 C-1.09242216 1.09242216 -1.09242216 1.09242216 0 0 Z " fill="#5170FE" transform="translate(341,21)"/>
<path d="M0 0 C40.46961185 12.40494931 74.08292136 52.28823405 93.625 88.0625 C117.0874586 132.61916547 121.72365754 187.46492772 107.12890625 235.54614258 C100.28818771 257.08782838 91.15396516 276.60678666 78 295 C77.61215332 295.55155762 77.22430664 296.10311523 76.82470703 296.67138672 C60.59102238 319.49383729 38.53253511 338.61105711 14 352 C13.37303223 352.34369629 12.74606445 352.68739258 12.10009766 353.04150391 C2.10863397 358.44414514 -8.20350235 362.55408544 -18.92578125 366.27001953 C-20.64935091 366.87659595 -22.358166 367.52490344 -24.0625 368.18359375 C-34.30040339 372.00792685 -45.2468527 373.33947476 -56 375 C-56.75925781 375.12149414 -57.51851563 375.24298828 -58.30078125 375.36816406 C-69.23714222 377.09306092 -79.96610775 377.30872534 -91 377 C-92.23105469 376.97035156 -93.46210938 376.94070313 -94.73046875 376.91015625 C-113.34108207 376.06328039 -131.37729047 371.847431 -149 366 C-149.84723633 365.71914551 -150.69447266 365.43829102 -151.56738281 365.14892578 C-153.71253696 364.43540884 -155.85673995 363.71918282 -158 363 C-158 363.66 -158 364.32 -158 365 C-159.14689038 366.10771766 -160.29449083 367.21470588 -161.44482422 368.31884766 C-165.50141248 372.70403867 -168.60290902 378.00503467 -171.91601562 382.95898438 C-172.81030273 384.26899414 -172.81030273 384.26899414 -173.72265625 385.60546875 C-174.25640869 386.40106201 -174.79016113 387.19665527 -175.34008789 388.01635742 C-177.09020074 390.10779247 -178.49425295 390.98754597 -181 392 C-177.61860108 383.03170044 -174.02071971 374.18689754 -170.25 365.375 C-169.27502744 363.09157862 -168.30102115 360.80774435 -167.328125 358.5234375 C-166.9043457 357.53263184 -166.48056641 356.54182617 -166.04394531 355.52099609 C-165.29314273 353.70790268 -164.62056525 351.86169574 -164 350 C-165.32 349.34 -166.64 348.68 -168 348 C-166.35 348 -164.7 348 -163 348 C-156.81848291 334.07017543 -150.73429267 320.11976482 -145 306 C-143.34520022 301.99507133 -141.67158776 297.99794491 -140 294 C-138.8140625 294.45890625 -137.628125 294.9178125 -136.40625 295.390625 C-110.21474819 305.37429883 -80.57532713 311.16439531 -53 303 C-51.70704981 302.64446374 -50.41408016 302.28899827 -49.12109375 301.93359375 C-15.70966656 292.39727264 11.08689792 271.69133135 28.5 241.58911133 C32.88275855 233.69996979 36.26232606 225.59335167 39 217 C39.2568457 216.20094238 39.51369141 215.40188477 39.77832031 214.57861328 C46.53985579 192.52767504 46.91627702 166.06456215 40 144 C39.64591064 142.84467773 39.64591064 142.84467773 39.28466797 141.66601562 C33.94400213 124.73841197 25.93011046 109.22042382 14 96 C13.29359375 95.16339844 12.5871875 94.32679688 11.859375 93.46484375 C4.59100271 85.00686377 -3.69820902 78.1399715 -13 72 C-11.54580538 59.66206753 -9.32119086 47.51236913 -7 35.3125 C-6.2898572 31.55893383 -5.58213465 27.80491513 -4.875 24.05078125 C-4.62327026 22.72000046 -4.62327026 22.72000046 -4.36645508 21.36233521 C-3.28416857 15.61211231 -2.28268542 9.85494143 -1.39453125 4.07104492 C-1 2 -1 2 0 0 Z " fill="#D8D8D8" transform="translate(333,71)"/>
<path d="M0 0 C-1.27242652 2.66148909 -2.65600662 5.07233827 -4.36328125 7.4765625 C-4.83113037 8.137771 -5.29897949 8.79897949 -5.78100586 9.48022461 C-6.28639893 10.18800049 -6.79179199 10.89577637 -7.3125 11.625 C-7.84302979 12.37209229 -8.37355957 13.11918457 -8.92016602 13.88891602 C-14.34393274 21.51303248 -19.82506799 29.09578195 -25.31494141 36.67236328 C-27.08094577 39.11181353 -28.84364663 41.5536215 -30.60546875 43.99609375 C-31.19465088 44.81279541 -31.78383301 45.62949707 -32.39086914 46.47094727 C-33.51915051 48.03510137 -34.64725252 49.59938488 -35.77514648 51.16381836 C-36.28505127 51.87030518 -36.79495605 52.57679199 -37.3203125 53.3046875 C-37.76648926 53.92327637 -38.21266602 54.54186523 -38.67236328 55.17919922 C-39.1104834 55.78006348 -39.54860352 56.38092773 -40 57 C-40.40460449 57.73105957 -40.80920898 58.46211914 -41.22607422 59.21533203 C-43 61 -43 61 -46.16015625 61.390625 C-47.44792969 61.34421875 -48.73570312 61.2978125 -50.0625 61.25 C-51.50479103 61.21530393 -52.94709301 61.1810603 -54.3894043 61.1472168 C-55.14281097 61.12235199 -55.89621765 61.09748718 -56.67245483 61.0718689 C-70.30174506 60.65102978 -82.85641775 61.04140791 -96 65 C-97.25425781 65.33902344 -98.50851563 65.67804688 -99.80078125 66.02734375 C-115.82126542 70.78104602 -130.32965934 79.19905386 -143 90 C-143.90234375 90.763125 -144.8046875 91.52625 -145.734375 92.3125 C-168.8874772 112.51884374 -184.12383933 141.50032152 -188 172 C-188.2054892 176.47623981 -188.22787653 180.95067351 -188.24023438 185.4309082 C-188.24986544 187.53312918 -188.28091711 189.63433874 -188.3125 191.73632812 C-188.38404537 200.84751006 -187.33270188 209.1395874 -185 218 C-184.80116211 218.76997314 -184.60232422 219.53994629 -184.39746094 220.33325195 C-176.65612907 248.69589026 -160.55506877 273.24835397 -137 291 C-138.32 295.95 -139.64 300.9 -141 306 C-139.68 306.66 -138.36 307.32 -137 308 C-137.99 308 -138.98 308 -140 308 C-142.23935946 315.59236163 -143.8030057 323.11814101 -145 330.9375 C-146.29660943 339.08331707 -147.70367628 347.06724533 -150 355 C-149.34 355.33 -148.68 355.66 -148 356 C-148.66 356.33 -149.32 356.66 -150 357 C-150.46651207 359.12576782 -150.46651207 359.12576782 -150.625 361.5625 C-150.69976562 362.38878906 -150.77453125 363.21507812 -150.8515625 364.06640625 C-150.92503906 365.02353516 -150.92503906 365.02353516 -151 366 C-151.4640625 365.68289063 -151.928125 365.36578125 -152.40625 365.0390625 C-156.14947111 362.51099153 -159.91362032 360.03796677 -163.7734375 357.69140625 C-172.04464437 352.65428714 -179.70402936 347.41404013 -187 341 C-187.76957031 340.34 -188.53914063 339.68 -189.33203125 339 C-228.18931804 304.97570908 -254.20248134 258.18947308 -258.6875 206.1875 C-259.84641338 185.01318682 -259.20697501 163.63681837 -254 143 C-253.67305002 141.62533913 -253.34760204 140.25032039 -253.0234375 138.875 C-251.38983209 132.06598371 -249.58013686 125.508633 -247 119 C-246.58186035 117.93386475 -246.58186035 117.93386475 -246.15527344 116.84619141 C-231.42014369 79.7309615 -206.87661806 47.90281258 -174 25 C-173.37367676 24.56139648 -172.74735352 24.12279297 -172.10205078 23.67089844 C-124.49068859 -9.10987036 -54.89015149 -22.12376259 0 0 Z " fill="#D8D8D8" transform="translate(311,62)"/>
<path d="M0 0 C1.27101563 -0.01015137 2.54203125 -0.02030273 3.8515625 -0.03076172 C16.82632154 0.08906241 27.3111201 3.23719376 39 8.6875 C40.01513672 9.13996094 41.03027344 9.59242188 42.07617188 10.05859375 C49.78499824 13.6073378 58.28238435 17.92105632 62.8125 25.4375 C61.8125 28.4375 61.8125 28.4375 59.4375 30.75 C54.90528547 35.3901244 53.64143825 38.90158216 53.625 45.3125 C53.67284658 47.02130652 53.73046675 48.72999317 53.8125 50.4375 C54.41578125 50.73398438 55.0190625 51.03046875 55.640625 51.3359375 C58.5314484 52.80214649 60.56452493 54.06463742 62.8125 56.4375 C63.5114353 60.28164417 63.04721404 63.73335788 61.8125 67.4375 C60.22955218 67.49187607 58.64605744 67.53046271 57.0625 67.5625 C56.18078125 67.58570313 55.2990625 67.60890625 54.390625 67.6328125 C51.66351341 67.42621314 50.20509696 66.67810583 47.8125 65.4375 C44.19192732 65.43081283 44.19192732 65.43081283 40.8125 66.4375 C38.5566717 69.61917314 38.64895798 72.44068193 38.625 76.25 C38.29921636 82.04243313 36.84553532 86.12179281 34.25 91.1875 C31.3299673 96.89649161 29.82912049 100.99090099 30.8125 107.4375 C32.67792565 109.72818303 32.67792565 109.72818303 35.640625 109.703125 C36.76984375 109.69796875 37.8990625 109.6928125 39.0625 109.6875 C40.18140625 109.69265625 41.3003125 109.6978125 42.453125 109.703125 C45.88617868 109.43167424 48.59077705 108.61151768 51.8125 107.4375 C55.65711533 106.95692308 57.45170068 107.25912226 60.94921875 108.98828125 C63.8125 111.4375 63.8125 111.4375 64.58203125 115.00390625 C64.59621094 116.32261719 64.61039063 117.64132812 64.625 119 C64.66563111 124.29129429 64.66563111 124.29129429 65.8125 129.4375 C68.31009982 131.13632448 68.31009982 131.13632448 70.8125 132.4375 C67.14432053 143.19367209 55.97139961 152.3433859 46.08984375 157.41796875 C40.13256034 160.31890038 34.22762982 162.74107286 27.8125 164.4375 C28.1425 163.798125 28.4725 163.15875 28.8125 162.5 C30.3355246 157.83573717 30.54994062 153.1032482 29.234375 148.34765625 C27.01826206 145.37051552 24.3002218 144.32717771 20.8125 143.4375 C16.98030983 143.00716624 13.16635486 142.92681239 9.3125 142.875 C2.74445175 142.7614678 -2.87058976 142.4129985 -9.1875 140.4375 C-12.25933344 140.12692586 -12.25933344 140.12692586 -15.25 140.1875 C-16.23097656 140.18234375 -17.21195313 140.1771875 -18.22265625 140.171875 C-21.45960377 140.4618782 -24.15257938 141.30109585 -27.1875 142.4375 C-27.17589844 143.64148438 -27.16429687 144.84546875 -27.15234375 146.0859375 C-27.14296566 147.66145679 -27.13386548 149.23697775 -27.125 150.8125 C-27.11662109 151.6065625 -27.10824219 152.400625 -27.09960938 153.21875 C-27.07421875 159.2109375 -27.07421875 159.2109375 -28.1875 161.4375 C-37.22308906 160.07090735 -43.69412422 157.61149756 -51.1875 152.4375 C-47.93566328 150.67608844 -44.58494216 149.49038364 -41.08984375 148.31640625 C-38.86824463 147.29000008 -37.69740061 146.36681745 -36.1875 144.4375 C-35.40325073 142.10842955 -35.40325073 142.10842955 -34.875 139.5625 C-33.43210494 134.5123673 -31.86187443 132.15713603 -27.1875 129.4375 C-24.54991505 128.71815865 -21.96512277 128.20097127 -19.26171875 127.796875 C-17.2033486 127.64535304 -17.2033486 127.64535304 -16.1875 126.4375 C-15.96803676 124.41784507 -15.76211803 122.39671283 -15.5625 120.375 C-14.54954572 113.41379541 -12.19964154 110.14653147 -7.1875 105.4375 C-1.22555322 98.90320633 1.56930927 93.6201883 1.26953125 84.66015625 C0.01009399 75.77950888 -4.18111643 69.75631671 -11.125 64.25 C-15.47647296 61.06809289 -18.77490508 59.71702368 -24.1875 59.4375 C-27.45500881 60.77876843 -27.45500881 60.77876843 -30.1875 62.4375 C-30.8475 62.4375 -31.5075 62.4375 -32.1875 62.4375 C-32.435 63.22125 -32.6825 64.005 -32.9375 64.8125 C-34.1875 67.4375 -34.1875 67.4375 -36 68.8125 C-38.90587165 69.64274904 -40.33830957 69.47988674 -43.1875 68.4375 C-46 66 -46 66 -48.1875 63.4375 C-48.1875 62.7775 -48.1875 62.1175 -48.1875 61.4375 C-48.765 61.19 -49.3425 60.9425 -49.9375 60.6875 C-52.1875 59.4375 -52.1875 59.4375 -53.8125 57.5625 C-59.69165742 52.30220126 -66.65941301 50.96552087 -74.3515625 51.296875 C-74.95742187 51.34328125 -75.56328125 51.3896875 -76.1875 51.4375 C-70.96328874 34.49760705 -59.85474788 19.12881999 -44.1875 10.4375 C-39.61343732 8.14211166 -34.98283329 6.22097337 -30.1875 4.4375 C-29.13949219 4.02113281 -28.09148437 3.60476562 -27.01171875 3.17578125 C-18.09727835 0.19033411 -9.33184878 0.04295017 0 0 Z " fill="#B6D2DE" transform="translate(248.1875,165.5625)"/>
<path d="M0 0 C0.33 0 0.66 0 1 0 C0.26438153 10.00855545 -1.70770681 19.77717033 -3.5625 29.625 C-3.8955625 31.41008535 -4.22824804 33.19524108 -4.56054688 34.98046875 C-5.36935085 39.3211367 -6.18326152 43.66081831 -7 48 C-6.06986084 48.30164063 -5.13972168 48.60328125 -4.18139648 48.9140625 C11.24119533 54.17840817 25.82717406 65.44270343 38 76 C38.7940625 76.68320313 39.588125 77.36640625 40.40625 78.0703125 C42.98183617 80.33649384 45.49819078 82.65253482 48 85 C48.52996582 85.4959668 49.05993164 85.99193359 49.60595703 86.50292969 C80.10398982 115.28582903 99.66975479 154.88471455 107 196 C107.33644531 197.80404297 107.33644531 197.80404297 107.6796875 199.64453125 C115.72005491 251.3562093 101.27841193 305.25336522 70.66796875 347.1953125 C65.33343289 354.36220089 59.5837185 361.06372778 53.41210938 367.52050781 C52.4756544 368.5016484 51.54457769 369.48795247 50.61914062 370.47949219 C24.86338412 398.03342916 -11.06738083 416.68691467 -47.6875 424.8125 C-48.56438477 425.0074707 -49.44126953 425.20244141 -50.34472656 425.40332031 C-64.70041519 428.38379466 -79.05911198 429.41382133 -93.6875 429.375 C-94.85963547 429.37418427 -94.85963547 429.37418427 -96.05545044 429.37335205 C-109.06423114 429.33196236 -121.36603825 428.28145317 -134 425 C-134.9079834 424.76974121 -135.8159668 424.53948242 -136.75146484 424.30224609 C-147.15165019 421.61989419 -157.2530058 418.56070536 -167 414 C-166.67 413.34 -166.34 412.68 -166 412 C-165.45617676 412.18248291 -164.91235352 412.36496582 -164.35205078 412.55297852 C-161.90263345 413.37250858 -159.45168498 414.18727902 -157 415 C-156.2584668 415.2460498 -155.51693359 415.49209961 -154.75292969 415.74560547 C-136.64155941 421.67142697 -118.08978369 425.49337092 -99 426 C-98.33774414 426.03109863 -97.67548828 426.06219727 -96.99316406 426.09423828 C-76.44450716 427.04037033 -54.61684318 424.21094713 -35 418 C-34.13213867 417.72671875 -33.26427734 417.4534375 -32.37011719 417.171875 C-19.67550759 413.1054646 -7.68742141 408.40563658 4 402 C5.16402344 401.38640625 6.32804687 400.7728125 7.52734375 400.140625 C21.14104451 392.7288914 33.34654977 383.24924088 44.46972656 372.47900391 C45.53307926 371.45127725 46.60326912 370.43059677 47.67871094 369.41552734 C83.07365901 335.98477187 104.59783704 286.38478777 106.06640625 237.80322266 C106.51900534 219.68040068 105.41180007 201.62648759 101 184 C100.73574219 182.78957031 100.47148437 181.57914063 100.19921875 180.33203125 C92.58399711 146.88544106 74.93596605 117.10734868 51.36474609 92.43212891 C50.05051533 91.05300947 48.75339339 89.65764787 47.45703125 88.26171875 C37.50960676 77.86282265 25.95405162 69.30210654 13.8125 61.625 C13.23282471 61.25689209 12.65314941 60.88878418 12.0559082 60.50952148 C5.61379548 56.55902814 -1.22282082 53.32716231 -8 50 C-8.22550537 51.3765979 -8.22550537 51.3765979 -8.45556641 52.78100586 C-11.29340199 70.06220193 -14.18566315 87.33095738 -17.3125 104.5625 C-17.50540619 105.63152054 -17.50540619 105.63152054 -17.70220947 106.72213745 C-18.06575796 108.73320647 -18.43317635 110.74357475 -18.80078125 112.75390625 C-19.00872314 113.89158447 -19.21666504 115.0292627 -19.4309082 116.20141602 C-20 119 -20 119 -21 122 C-20.46761719 122.23589844 -19.93523437 122.47179687 -19.38671875 122.71484375 C6.97793443 136.91119546 24.42333816 166.25467072 33 194 C33.2259082 194.71897461 33.45181641 195.43794922 33.68457031 196.17871094 C42.9868832 227.28644543 36.94856568 262.66246142 21.99121094 290.90478516 C17.76640256 298.52637251 12.67923186 305.41168246 7 312 C6.20078125 312.94488281 5.4015625 313.88976562 4.578125 314.86328125 C-12.09160686 334.11524893 -32.8791722 345.56279115 -57 353 C-58.09957031 353.350625 -59.19914063 353.70125 -60.33203125 354.0625 C-70.47476803 356.65489279 -80.30087398 357.3589937 -90.75 357.3125 C-91.41052368 357.31034485 -92.07104736 357.3081897 -92.75158691 357.30596924 C-102.85619477 357.25312151 -112.23616465 356.77619782 -122 354 C-123.05670898 353.70198486 -123.05670898 353.70198486 -124.13476562 353.39794922 C-154.48001786 344.62935361 -182.10508784 326.07208544 -199 299 C-199.96679688 297.46666016 -199.96679688 297.46666016 -200.953125 295.90234375 C-212.80123702 276.20824916 -219.17668052 254.59874042 -219.24023438 231.62402344 C-219.24984927 229.532784 -219.28089292 227.44256843 -219.3125 225.3515625 C-219.41193255 212.81797377 -217.39671578 200.9577606 -213.3125 189.0625 C-213.05976318 188.31798584 -212.80702637 187.57347168 -212.54663086 186.80639648 C-206.31360002 169.10773632 -196.45598545 153.91522417 -184 140 C-183.04867187 138.92105469 -183.04867187 138.92105469 -182.078125 137.8203125 C-163.37401672 117.8747811 -138.22770499 107.48167468 -112 102 C-111.25387451 101.80825195 -110.50774902 101.61650391 -109.73901367 101.41894531 C-106.26795839 100.88803071 -103.00202838 101.21488359 -99.53125 101.53515625 C-84.51198981 103.14322927 -84.51198981 103.14322927 -70.34521484 99.52783203 C-66.15184263 95.58774395 -63.72484691 90.69643132 -61.29101562 85.54443359 C-59.15217813 81.329047 -56.2833843 77.6949437 -53.4375 73.9375 C-52.36020448 72.45629992 -51.2872664 70.97192064 -50.21875 69.484375 C-49.69023437 68.75025391 -49.16171875 68.01613281 -48.6171875 67.25976562 C-45.36656076 62.71752513 -42.15574216 58.14686689 -38.95678711 53.56811523 C-36.92995825 50.67775182 -34.89972263 47.87762478 -32.66015625 45.14453125 C-30.79595195 43.18842374 -30.79595195 43.18842374 -31 41 C-62.84573463 32.0676598 -96.17105571 28.32904126 -128.81298828 35.52001953 C-130.34568374 35.85639811 -131.88076807 36.18198863 -133.41748047 36.49951172 C-162.0763549 42.43783705 -188.88879025 55.00692836 -212 73 C-212.85247314 73.66201416 -212.85247314 73.66201416 -213.72216797 74.33740234 C-227.75187976 85.39249949 -240.85162767 98.27499137 -251 113 C-251.44150391 113.64018066 -251.88300781 114.28036133 -252.33789062 114.93994141 C-265.40792087 134.11084242 -274.61032313 153.68937825 -281 176 C-281.5259375 177.80597656 -281.5259375 177.80597656 -282.0625 179.6484375 C-295.88288541 228.93437075 -286.96868858 283.60654356 -262.21264648 327.90209961 C-257.9498946 335.31248101 -253.2108216 342.23023838 -248 349 C-247.35417969 349.86882812 -246.70835937 350.73765625 -246.04296875 351.6328125 C-231.1212793 370.88090895 -212.37424273 387.04038051 -191.26953125 399.09765625 C-188.07973347 400.95360789 -185.04794598 402.92332664 -182 405 C-182.33 405.66 -182.66 406.32 -183 407 C-193.55073944 401.32726477 -203.45891029 395.24775978 -213 388 C-213.88558594 387.34 -214.77117187 386.68 -215.68359375 386 C-229.83240651 374.97383237 -242.58660004 361.5904792 -253 347 C-253.41121094 346.43313477 -253.82242188 345.86626953 -254.24609375 345.28222656 C-284.63783777 303.03202167 -297.51662607 249.14727077 -289.375 197.6875 C-280.18614758 145.76881618 -252.07833284 97.90910371 -209 67 C-208.44231934 66.59265625 -207.88463867 66.1853125 -207.31005859 65.765625 C-164.92349838 35.07149031 -112.00445942 22.96797025 -60.4375 30.75 C-49.16630865 32.57580117 -37.56364055 34.52924576 -27 39 C-26.72994141 38.26064209 -26.45988281 37.52128418 -26.18164062 36.75952148 C-25.04861581 34.113534 -23.81790987 32.13813215 -22.09375 29.84765625 C-21.51906982 29.07728027 -20.94438965 28.3069043 -20.35229492 27.51318359 C-19.43540894 26.30009521 -19.43540894 26.30009521 -18.5 25.0625 C-17.23480395 23.3691416 -15.97048839 21.675125 -14.70703125 19.98046875 C-13.76851318 18.72435791 -13.76851318 18.72435791 -12.81103516 17.44287109 C-9.79254812 13.37129098 -6.85984003 9.23991543 -3.93359375 5.10180664 C-1.09242216 1.09242216 -1.09242216 1.09242216 0 0 Z M-185.66015625 144.875 C-210.10697538 173.28923182 -219.08005049 205.99821295 -217 243 C-214.51111788 275.23346353 -196.32810934 305.41758744 -172.1875 326.1875 C-158.43916647 337.23211241 -143.18588074 345.7971341 -126.25 350.875 C-125.29613403 351.16165527 -125.29613403 351.16165527 -124.32299805 351.45410156 C-91.46615091 360.60337397 -56.81777182 354.77727626 -27.375 338.5 C-21.09687022 334.88403724 -15.42660726 330.8149124 -10 326 C-9.02417969 325.15566406 -8.04835938 324.31132812 -7.04296875 323.44140625 C8.33044893 309.93172729 19.00922344 293.70092735 27 275 C27.38929688 274.13632812 27.77859375 273.27265625 28.1796875 272.3828125 C39.64734352 244.55818976 37.91851737 209.55178218 26.75 182 C21.16631512 169.13612603 14.34954796 157.4937234 5 147 C4.30390625 146.17242187 3.6078125 145.34484375 2.890625 144.4921875 C-17.33379797 120.94623521 -46.38626924 106.95470017 -77 103 C-119.17807213 100.07169267 -156.75284112 113.63302653 -185.66015625 144.875 Z " fill="#F11765" transform="translate(341,21)"/>
<path d="M0 0 C9.34255826 -0.76578346 16.77205077 2.06970665 24 8.0625 C26.28222229 10.19147954 28.37102068 12.31697524 30 15 C30 15.66 30 16.32 30 17 C34.67440427 17.96477426 34.67440427 17.96477426 39.3125 17.3125 C41.1330328 16.10719441 41.1330328 16.10719441 41.875 14.0625 C43.2017356 11.6301514 44.24071124 10.93252611 46.6875 9.6875 C47.33074219 9.34074219 47.97398437 8.99398437 48.63671875 8.63671875 C53.42686507 7.3461504 57.08085474 8.48358977 61.31640625 10.86328125 C62.41507322 11.65715888 63.49694854 12.47469878 64.5625 13.3125 C65.12606201 13.7554541 65.68962402 14.1984082 66.27026367 14.65478516 C72.56546584 19.9061144 76.15445096 25.97087622 77.5234375 34.11328125 C77.90219039 41.21038904 76.3960949 46.42421909 72 52 C69.73371721 54.37959693 67.42162421 56.6509629 64.98828125 58.859375 C61.49522836 62.62006848 60.83300222 66.11666057 60.6875 71.125 C60.27079935 75.72920065 60.27079935 75.72920065 58 78 C55.44084408 78.85305197 53.07700295 79.37927786 50.4375 79.875 C47.26915957 80.53178699 46.13742791 80.88065471 43.625 83.0625 C41.84717589 86.27625896 40.85587272 89.42295012 39.765625 92.9140625 C38.70439141 95.8053826 37.52936762 97.24349471 35 99 C29.98453345 100.98726033 26.20923203 101.48835201 21 100 C9.18800821 93.19263344 4.35621046 78.80604317 0.5625 66.5625 C0.1272915 65.21366231 -0.30955187 63.86535099 -0.74804688 62.51757812 C-3.89205469 52.75565257 -5.18653855 44.63053016 -5.18530273 34.35473633 C-5.18747484 32.33588105 -5.20561801 30.31758592 -5.22460938 28.29882812 C-5.23981768 18.08391698 -4.42781222 9.25815282 0 0 Z " fill="#628B2E" transform="translate(173,216)"/>
<path d="M0 0 C0.33 0 0.66 0 1 0 C0.67 3.3 0.34 6.6 0 10 C-0.66 9.67 -1.32 9.34 -2 9 C-6.95 20.55 -11.9 32.1 -17 44 C-15.35 44.33 -13.7 44.66 -12 45 C-15.75 46.125 -15.75 46.125 -18 45 C-18.34675781 46.13566406 -18.69351562 47.27132812 -19.05078125 48.44140625 C-21.6114418 56.12639867 -24.97933429 63.50667511 -28.1875 70.9375 C-29.47674858 73.92404323 -30.76130758 76.91253787 -32.04296875 79.90234375 C-32.3397905 80.58562241 -32.63661224 81.26890106 -32.94242859 81.97288513 C-34.48407563 85.36394825 -34.48407563 85.36394825 -35 89 C-35.66 89 -36.32 89 -37 89 C-37.391875 90.258125 -37.78375 91.51625 -38.1875 92.8125 C-40.03884094 98.40212552 -42.48545526 103.68268207 -45 109 C-50.60212847 107.82536016 -56.02494296 106.41863047 -61.4921875 104.73046875 C-65.29099553 103.62396236 -69.12839992 102.81178711 -73 102 C-67.71562673 93.15960111 -61.63257682 84.97670759 -55.49609375 76.71875 C-51.32676766 71.10701978 -47.26836309 65.42055032 -43.22509766 59.71777344 C-41.8924801 57.84924073 -40.54693183 55.99048357 -39.19921875 54.1328125 C-38.73741211 53.49384033 -38.27560547 52.85486816 -37.79980469 52.1965332 C-36.91407031 50.97158478 -36.0255458 49.74864733 -35.13378906 48.52807617 C-33.32564793 46.01999757 -31.98493098 43.95479294 -31 41 C-62.84573463 32.0676598 -96.17105571 28.32904126 -128.81298828 35.52001953 C-130.34568374 35.85639811 -131.88076807 36.18198863 -133.41748047 36.49951172 C-162.0763549 42.43783705 -188.88879025 55.00692836 -212 73 C-212.85247314 73.66201416 -212.85247314 73.66201416 -213.72216797 74.33740234 C-227.75187976 85.39249949 -240.85162767 98.27499137 -251 113 C-251.44150391 113.64018066 -251.88300781 114.28036133 -252.33789062 114.93994141 C-265.40792087 134.11084242 -274.61032313 153.68937825 -281 176 C-281.5259375 177.80597656 -281.5259375 177.80597656 -282.0625 179.6484375 C-295.88288541 228.93437075 -286.96868858 283.60654356 -262.21264648 327.90209961 C-257.9498946 335.31248101 -253.2108216 342.23023838 -248 349 C-247.35417969 349.86882812 -246.70835937 350.73765625 -246.04296875 351.6328125 C-231.1212793 370.88090895 -212.37424273 387.04038051 -191.26953125 399.09765625 C-188.07973347 400.95360789 -185.04794598 402.92332664 -182 405 C-182.33 405.66 -182.66 406.32 -183 407 C-193.55073944 401.32726477 -203.45891029 395.24775978 -213 388 C-213.88558594 387.34 -214.77117187 386.68 -215.68359375 386 C-229.83240651 374.97383237 -242.58660004 361.5904792 -253 347 C-253.41121094 346.43313477 -253.82242188 345.86626953 -254.24609375 345.28222656 C-284.63783777 303.03202167 -297.51662607 249.14727077 -289.375 197.6875 C-280.18614758 145.76881618 -252.07833284 97.90910371 -209 67 C-208.44231934 66.59265625 -207.88463867 66.1853125 -207.31005859 65.765625 C-164.92349838 35.07149031 -112.00445942 22.96797025 -60.4375 30.75 C-49.16630865 32.57580117 -37.56364055 34.52924576 -27 39 C-26.72994141 38.26064209 -26.45988281 37.52128418 -26.18164062 36.75952148 C-25.04861581 34.113534 -23.81790987 32.13813215 -22.09375 29.84765625 C-21.51906982 29.07728027 -20.94438965 28.3069043 -20.35229492 27.51318359 C-19.43540894 26.30009521 -19.43540894 26.30009521 -18.5 25.0625 C-17.23480395 23.3691416 -15.97048839 21.675125 -14.70703125 19.98046875 C-13.76851318 18.72435791 -13.76851318 18.72435791 -12.81103516 17.44287109 C-9.79254812 13.37129098 -6.85984003 9.23991543 -3.93359375 5.10180664 C-1.09242216 1.09242216 -1.09242216 1.09242216 0 0 Z " fill="#F93082" transform="translate(341,21)"/>
<path d="M0 0 C7.13158675 6.61153397 10.48486757 16.12111176 13.6875 25.0625 C14.06455078 26.08666016 14.44160156 27.11082031 14.83007812 28.16601562 C15.56647096 30.17728051 16.29228795 32.19245451 17.0065918 34.21166992 C17.62128583 35.93701289 18.25678726 37.65528529 18.92504883 39.3605957 C21.16194743 45.3099913 21.43245715 50.74086461 21.3125 57.0625 C21.29687012 58.07618652 21.28124023 59.08987305 21.26513672 60.13427734 C21.20187136 63.09087859 21.10545567 66.04464367 21 69 C20.98404785 69.75297363 20.9680957 70.50594727 20.95166016 71.28173828 C20.58706182 84.26704835 14.96957771 94.72522733 9 106 C6.03824877 105.38722388 4.61941217 104.74627478 2 103 C0.63121464 98.89364391 0.75428161 94.74784671 0.74609375 90.44921875 C0.7126339 88.20457583 0.7126339 88.20457583 0 85 C-2.76553903 82.71900169 -4.38016273 82.06594014 -7.9375 81.6875 C-11.00617872 81.87585414 -11.00617872 81.87585414 -13.7734375 83 C-17.23156275 84.07176763 -20.07537383 84.29991419 -23.6875 84.3125 C-24.80511719 84.32925781 -25.92273438 84.34601563 -27.07421875 84.36328125 C-30 84 -30 84 -31.85546875 82.71484375 C-34.12506647 79.3143202 -33.76083488 75.81991583 -33 72 C-31.61735452 68.87585449 -30.12747642 65.85188466 -28.56982422 62.81396484 C-25.94297646 57.46774635 -25.23512383 52.79816709 -25.265625 46.8046875 C-24.94742369 43.44485598 -24.05945047 41.65598094 -22 39 C-16.1686747 37.40963855 -16.1686747 37.40963855 -13.10546875 38.95703125 C-10.59264021 40.20179047 -8.53610125 40.40504464 -5.75 40.625 C-4.85796875 40.69976562 -3.9659375 40.77453125 -3.046875 40.8515625 C-2.37140625 40.90054688 -1.6959375 40.94953125 -1 41 C-0.51622163 37.22384103 -0.30236404 33.75689881 -1 30 C-2.88149861 27.84911456 -4.70381709 26.5763909 -7.15234375 25.12109375 C-9 24 -9 24 -10 22 C-10.75579334 14.73275639 -9.31660608 10.18533336 -5 4.25 C-3 2 -3 2 0 0 Z " fill="#628B2F" transform="translate(311,192)"/>
<path d="M0 0 C24.66482737 17.80007122 41.82357922 41.9998295 50.79296875 71.015625 C51.01887695 71.73459961 51.24478516 72.45357422 51.47753906 73.19433594 C60.77985195 104.30207043 54.74153443 139.67808642 39.78417969 167.92041016 C35.55937131 175.54199751 30.47220061 182.42730746 24.79296875 189.015625 C23.99375 189.96050781 23.19453125 190.90539062 22.37109375 191.87890625 C5.70136189 211.13087393 -15.08620345 222.57841615 -39.20703125 230.015625 C-40.30660156 230.36625 -41.40617188 230.716875 -42.5390625 231.078125 C-52.68179928 233.67051779 -62.50790523 234.3746187 -72.95703125 234.328125 C-73.61755493 234.32596985 -74.27807861 234.3238147 -74.95861816 234.32159424 C-85.06322602 234.26874651 -94.4431959 233.79182282 -104.20703125 231.015625 C-105.26374023 230.71760986 -105.26374023 230.71760986 -106.34179688 230.41357422 C-136.68704911 221.64497861 -164.31211909 203.08771044 -181.20703125 176.015625 C-181.8515625 174.99339844 -182.49609375 173.97117187 -183.16015625 172.91796875 C-195.00826827 153.22387416 -201.38371177 131.61436542 -201.44726562 108.63964844 C-201.45688052 106.548409 -201.48792417 104.45819343 -201.51953125 102.3671875 C-201.6189638 89.83359877 -199.60374703 77.9733856 -195.51953125 66.078125 C-195.26679443 65.33361084 -195.01405762 64.58909668 -194.75366211 63.82202148 C-188.52063127 46.12336132 -178.6630167 30.93084917 -166.20703125 17.015625 C-165.5728125 16.29632813 -164.93859375 15.57703125 -164.28515625 14.8359375 C-145.58104797 -5.1095939 -120.43473624 -15.50270032 -94.20703125 -20.984375 C-93.4399585 -21.160896 -92.67288574 -21.33741699 -91.88256836 -21.51928711 C-60.16866791 -27.03210583 -26.47449941 -17.36289179 0 0 Z M-167.8671875 21.890625 C-192.31400663 50.30485682 -201.28708174 83.01383795 -199.20703125 120.015625 C-196.71814913 152.24908853 -178.53514059 182.43321244 -154.39453125 203.203125 C-140.64619772 214.24773741 -125.39291199 222.8127591 -108.45703125 227.890625 C-107.50316528 228.17728027 -107.50316528 228.17728027 -106.5300293 228.46972656 C-73.67318216 237.61899897 -39.02480307 231.79290126 -9.58203125 215.515625 C-3.30390147 211.89966224 2.36636149 207.8305374 7.79296875 203.015625 C8.76878906 202.17128906 9.74460937 201.32695312 10.75 200.45703125 C26.12341768 186.94735229 36.80219219 170.71655235 44.79296875 152.015625 C45.18226563 151.15195312 45.5715625 150.28828125 45.97265625 149.3984375 C57.44031227 121.57381476 55.71148612 86.56740718 44.54296875 59.015625 C38.95928387 46.15175103 32.14251671 34.5093484 22.79296875 24.015625 C22.096875 23.18804687 21.40078125 22.36046875 20.68359375 21.5078125 C0.45917078 -2.03813979 -28.59330049 -16.02967483 -59.20703125 -19.984375 C-101.38510338 -22.91268233 -138.95987237 -9.35134847 -167.8671875 21.890625 Z " fill="#0F1221" transform="translate(323.20703125,143.984375)"/>
<path d="M0 0 C0.99644531 -0.00515625 1.99289063 -0.0103125 3.01953125 -0.015625 C6.1875 0.25 6.1875 0.25 9.359375 1.2421875 C15.38048027 2.82733562 21.45028748 2.60860381 27.65039062 2.640625 C33.76035836 2.78523962 39.27441603 3.27931148 44.1875 7.25 C47.32028977 12.50847412 46.72764456 17.81934946 45.4375 23.625 C41.18824012 28.58246986 35.21544786 28.92660732 28.94335938 29.43017578 C16.77405441 30.12195167 5.85413939 28.62556409 -5.8125 25.25 C-7.13921879 24.87203015 -8.46603726 24.49440994 -9.79296875 24.1171875 C-11.28763672 23.68792969 -11.28763672 23.68792969 -12.8125 23.25 C-12.89336376 20.31195004 -12.9529283 17.37611925 -13 14.4375 C-13.02513672 13.60412109 -13.05027344 12.77074219 -13.07617188 11.91210938 C-13.08583984 11.10966797 -13.09550781 10.30722656 -13.10546875 9.48046875 C-13.1211792 8.74207764 -13.13688965 8.00368652 -13.15307617 7.24291992 C-12.71728873 4.69286048 -11.78385883 3.86696063 -9.8125 2.25 C-6.53055692 0.14168539 -3.86381052 -0.01983985 0 0 Z " fill="#628B2F" transform="translate(232.8125,304.75)"/>
<path d="M0 0 C4.42612281 0.60963578 7.99604218 2.3278468 11.875 4.4375 C12.85194824 4.96549194 12.85194824 4.96549194 13.84863281 5.50415039 C25.39411299 11.86580419 36.04134679 19.3630199 46 28 C47.19109375 29.02480469 47.19109375 29.02480469 48.40625 30.0703125 C50.98183617 32.33649384 53.49819078 34.65253482 56 37 C56.52996582 37.4959668 57.05993164 37.99193359 57.60595703 38.50292969 C88.10398982 67.28582903 107.66975479 106.88471455 115 148 C115.33644531 149.80404297 115.33644531 149.80404297 115.6796875 151.64453125 C123.72005491 203.3562093 109.27841193 257.25336522 78.66796875 299.1953125 C73.33343289 306.36220089 67.5837185 313.06372778 61.41210938 319.52050781 C60.4756544 320.5016484 59.54457769 321.48795247 58.61914062 322.47949219 C32.86338412 350.03342916 -3.06738083 368.68691467 -39.6875 376.8125 C-40.56438477 377.0074707 -41.44126953 377.20244141 -42.34472656 377.40332031 C-56.70041519 380.38379466 -71.05911198 381.41382133 -85.6875 381.375 C-86.85963547 381.37418427 -86.85963547 381.37418427 -88.05545044 381.37335205 C-101.06423114 381.33196236 -113.36603825 380.28145317 -126 377 C-126.9079834 376.76974121 -127.8159668 376.53948242 -128.75146484 376.30224609 C-139.15165019 373.61989419 -149.2530058 370.56070536 -159 366 C-158.67 365.34 -158.34 364.68 -158 364 C-157.45617676 364.18248291 -156.91235352 364.36496582 -156.35205078 364.55297852 C-153.90263345 365.37250858 -151.45168498 366.18727902 -149 367 C-148.2584668 367.2460498 -147.51693359 367.49209961 -146.75292969 367.74560547 C-128.64155941 373.67142697 -110.08978369 377.49337092 -91 378 C-90.33774414 378.03109863 -89.67548828 378.06219727 -88.99316406 378.09423828 C-68.44450716 379.04037033 -46.61684318 376.21094713 -27 370 C-26.13213867 369.72671875 -25.26427734 369.4534375 -24.37011719 369.171875 C-11.67550759 365.1054646 0.31257859 360.40563658 12 354 C13.16402344 353.38640625 14.32804688 352.7728125 15.52734375 352.140625 C29.14104451 344.7288914 41.34654977 335.24924088 52.46972656 324.47900391 C53.53307926 323.45127725 54.60326912 322.43059677 55.67871094 321.41552734 C91.07365901 287.98477187 112.59783704 238.38478777 114.06640625 189.80322266 C114.51900534 171.68040068 113.41180007 153.62648759 109 136 C108.73574219 134.78957031 108.47148437 133.57914063 108.19921875 132.33203125 C100.58399711 98.88544106 82.93596605 69.10734868 59.36474609 44.43212891 C58.05051533 43.05300947 56.75339339 41.65764787 55.45703125 40.26171875 C40.65377984 24.78661024 22.36419858 13.06565228 3.37890625 3.375 C1 2 1 2 0 0 Z " fill="#1B1B1B" transform="translate(333,69)"/>
<path d="M0 0 C-4.21569829 1.40523276 -7.44046774 -0.05577784 -11.5625 -1.25 C-40.25837934 -9.17634001 -71.62278864 -10.91054615 -100.81298828 -4.47998047 C-102.34568374 -4.14360189 -103.88076807 -3.81801137 -105.41748047 -3.50048828 C-134.0763549 2.43783705 -160.88879025 15.00692836 -184 33 C-184.56831543 33.44134277 -185.13663086 33.88268555 -185.72216797 34.33740234 C-199.75187976 45.39249949 -212.85162767 58.27499137 -223 73 C-223.44150391 73.64018066 -223.88300781 74.28036133 -224.33789062 74.93994141 C-237.40792087 94.11084242 -246.61032313 113.68937825 -253 136 C-253.5259375 137.80597656 -253.5259375 137.80597656 -254.0625 139.6484375 C-267.88288541 188.93437075 -258.96868858 243.60654356 -234.21264648 287.90209961 C-229.9498946 295.31248101 -225.2108216 302.23023838 -220 309 C-219.35417969 309.86882812 -218.70835937 310.73765625 -218.04296875 311.6328125 C-203.1212793 330.88090895 -184.37424273 347.04038051 -163.26953125 359.09765625 C-160.07973347 360.95360789 -157.04794598 362.92332664 -154 365 C-154.33 365.66 -154.66 366.32 -155 367 C-165.55073944 361.32726477 -175.45891029 355.24775978 -185 348 C-185.88558594 347.34 -186.77117187 346.68 -187.68359375 346 C-201.83240651 334.97383237 -214.58660004 321.5904792 -225 307 C-225.41121094 306.43313477 -225.82242188 305.86626953 -226.24609375 305.28222656 C-256.63783777 263.03202167 -269.51662607 209.14727077 -261.375 157.6875 C-252.18614758 105.76881618 -224.07833284 57.90910371 -181 27 C-180.44231934 26.59265625 -179.88463867 26.1853125 -179.31005859 25.765625 C-141.8044257 -1.39399687 -42.70904451 -37.04248824 0 0 Z " fill="#1C1C1C" transform="translate(313,61)"/>
<path d="M0 0 C4.04448995 0.64592591 7.17005169 2.78144455 10.5625 4.9375 C11.13935547 5.29779297 11.71621094 5.65808594 12.31054688 6.02929688 C14.89910443 7.6505042 17.45854415 9.3056961 20 11 C19.46129683 14.55544089 18.36905333 17.56002174 16.93432617 20.84301758 C15.86226223 23.31798097 14.8302238 25.8077886 13.80078125 28.30078125 C11.64713244 33.50997883 9.47585052 38.71155115 7.29443359 43.90917969 C6.46494695 45.88980981 5.63938642 47.87209153 4.81884766 49.85644531 C3.76883891 52.3899315 2.69997817 54.91452858 1.625 57.4375 C1.16154175 58.57215698 1.16154175 58.57215698 0.6887207 59.72973633 C-0.2109375 61.80859375 -0.2109375 61.80859375 -2 65 C-4.11181641 65.69946289 -4.11181641 65.69946289 -6 66 C-5.34 66.33 -4.68 66.66 -4 67 C-4.58883562 71.75524547 -6.00188084 75.80499476 -7.94140625 80.1484375 C-8.22853989 80.80582916 -8.51567352 81.46322083 -8.81150818 82.14053345 C-9.72217008 84.22153764 -10.64215518 86.29826275 -11.5625 88.375 C-12.18486739 89.79269559 -12.80661858 91.21066187 -13.42773438 92.62890625 C-14.94471354 96.0891091 -16.47006297 99.54550813 -18 103 C-19.18458936 99.502518 -18.80854402 97.0363403 -18.0390625 93.45703125 C-17.81476563 92.38259766 -17.59046875 91.30816406 -17.359375 90.20117188 C-17.11703125 89.08291016 -16.8746875 87.96464844 -16.625 86.8125 C-14.51347856 76.97519172 -14.51347856 76.97519172 -13.22412109 67.0065918 C-12.95890308 64.63205276 -12.49125461 62.33809803 -12 60 C-11.82678223 59.14438477 -11.65356445 58.28876953 -11.47509766 57.40722656 C-11.19738525 56.03775879 -11.19738525 56.03775879 -10.9140625 54.640625 C-10.48398829 52.51049471 -10.05432112 50.3802822 -9.625 48.25 C-9.40094482 47.13995605 -9.17688965 46.02991211 -8.94604492 44.88623047 C-7.49208046 37.62532819 -6.12502432 30.35799978 -4.98876953 23.04003906 C-4.44217386 19.70930161 -3.91278923 17.86918384 -2 15 C-2.15339844 14.39671875 -2.30679688 13.7934375 -2.46484375 13.171875 C-3.20246483 10.1783179 -2.43483443 8.18104368 -1.5625 5.25 C-1.27503906 4.26515625 -0.98757812 3.2803125 -0.69140625 2.265625 C-0.46324219 1.51796875 -0.23507813 0.7703125 0 0 Z " fill="#F0F0F0" transform="translate(173,354)"/>
<path d="M0 0 C8.49765966 2.74252097 14.02479216 5.53718823 19 13 C19.75435106 20.80665635 20.18622241 29.40462799 16.328125 36.46875 C15 38 15 38 11.6875 39.4375 C6.62803633 38.83722465 4.31767895 36.74654964 1 33 C0.23085419 31.8669295 -0.51970399 30.72099116 -1.25 29.5625 C-4.06146653 25.30781399 -8.10532943 23.28372579 -12.390625 20.68359375 C-15.92894076 18.40063852 -17.87168602 16.64853825 -20 13 C-20.35156726 9.13276018 -19.80470489 7.10620382 -17.51953125 3.96484375 C-12.03066695 -1.72773098 -7.42085856 -1.9683975 0 0 Z " fill="#638C2F" transform="translate(261,184)"/>
<path d="M0 0 C1.52519276 0.08937803 3.04681929 0.24537146 4.5625 0.4375 C5.38878906 0.53933594 6.21507813 0.64117187 7.06640625 0.74609375 C7.70449219 0.82988281 8.34257813 0.91367188 9 1 C7.77971251 11.121208 6.12155292 21.02870126 4 31 C5.65 30.67 7.3 30.34 9 30 C8.95875 29.07058594 8.9175 28.14117187 8.875 27.18359375 C8.875 22.03165159 9.9821117 17.09348169 11 12.0625 C11.28617188 10.6074707 11.28617188 10.6074707 11.578125 9.12304688 C12.04620667 6.7475324 12.52229475 4.37359794 13 2 C15.97 2.33 18.94 2.66 22 3 C22.26456953 9.87880773 21.25097863 16.24640589 20 23 C19.71382812 24.59134766 19.71382812 24.59134766 19.421875 26.21484375 C18.95408449 28.81108107 18.47999288 31.40599595 18 34 C18.66 34 19.32 34 20 34 C20 33.34 20 32.68 20 32 C20.66 32 21.32 32 22 32 C22.16435547 30.71029297 22.16435547 30.71029297 22.33203125 29.39453125 C23.44176367 21.12116028 24.98054475 13.10474707 27 5 C29.97 5.33 32.94 5.66 36 6 C34.07289294 22.8929385 34.07289294 22.8929385 32 30 C29.03 30.495 29.03 30.495 26 31 C26 31.66 26 32.32 26 33 C25.34 33 24.68 33 24 33 C24 33.66 24 34.32 24 35 C21.04335481 36.4783226 18.25770263 36.06032783 15 36 C14.67 35.01 14.34 34.02 14 33 C13.34 33 12.68 33 12 33 C12 32.34 12 31.68 12 31 C10.68 31.33 9.36 31.66 8 32 C8 32.66 8 33.32 8 34 C-0.57142857 33 -0.57142857 33 -4 32 C-5.33095797 24.98298743 -4.44864798 19.03575807 -3.125 12.0625 C-2.93808594 11.00998047 -2.75117187 9.95746094 -2.55859375 8.87304688 C-1.15316693 1.15316693 -1.15316693 1.15316693 0 0 Z " fill="#090909" transform="translate(74,231)"/>
<path d="M0 0 C-0.53460781 4.54416636 -2.47665482 7.25568135 -5 11 C-5 11.99 -5 12.98 -5 14 C-4.5875 13.505 -4.175 13.01 -3.75 12.5 C-2 11 -2 11 2 11 C1.67 11.78375 1.34 12.5675 1 13.375 C-0.11866511 15.84332497 -0.11866511 15.84332497 0 18 C0 18.99 0 19.98 0 21 C0.71285156 20.97679687 1.42570312 20.95359375 2.16015625 20.9296875 C7.87446066 20.82201555 12.52652879 21.1755096 18 23 C18.969375 23.12375 19.93875 23.2475 20.9375 23.375 C25.17905686 24.24062385 28.70572262 25.07019586 32 28 C34.6260721 33.17879022 36.73492349 39.13081938 36 45 C35.01 45.66 34.02 46.32 33 47 C32.01 46.505 32.01 46.505 31 46 C31 44.68 31 43.36 31 42 C30.24589844 42.07863281 29.49179688 42.15726563 28.71484375 42.23828125 C26 42 26 42 24.19140625 40.35546875 C23.65386719 39.64003906 23.11632812 38.92460937 22.5625 38.1875 C19.77585718 34.50107372 17.36097611 32.63923216 13 31 C10.1707974 30.71310189 7.39975969 30.80454265 4.5625 30.9375 C-1.14867235 31.17610009 -5.53527249 30.69737748 -11 29 C-11.680625 29.226875 -12.36125 29.45375 -13.0625 29.6875 C-15 30 -15 30 -16.57421875 28.9609375 C-18.0942736 27.6924535 -19.55156065 26.34968212 -21 25 C-19.77728385 15.44214841 -10.97947431 7.1275197 -4 1 C-2 0 -2 0 0 0 Z " fill="#96C6D9" transform="translate(221,191)"/>
<path d="M0 0 C7.22176607 0 13.52505707 3.46271058 19 8 C22.07311441 12.99652248 24.01862991 19.14287801 23 25 C18.86939038 36.13720444 18.86939038 36.13720444 14.5625 38.125 C12.71080525 38.75728601 10.85626052 39.38124649 9 40 C7.88319294 42.84979639 7.88319294 42.84979639 7 46 C6.1875 48.3125 6.1875 48.3125 5 50 C2.375 50.75 2.375 50.75 0 51 C0 51.66 0 52.32 0 53 C-0.99 53 -1.98 53 -3 53 C-3.66 51.68 -4.32 50.36 -5 49 C-6.98 49.495 -6.98 49.495 -9 50 C-9.33 48.68 -9.66 47.36 -10 46 C-8.88625 45.319375 -8.88625 45.319375 -7.75 44.625 C-3.94895314 40.996728 -2.67441099 36.90162771 -1 32 C-0.01 32.33 0.98 32.66 2 33 C2 35.64 2 38.28 2 41 C4.07277254 39.30612137 4.92250475 38.3276942 5.546875 35.6875 C6.27079978 26.10941835 6.92532164 16.15242529 1 8 C0.01 7.34 -0.98 6.68 -2 6 C-1.125 1.125 -1.125 1.125 0 0 Z " fill="#7FA94C" transform="translate(225,231)"/>
<path d="M0 0 C0.99 0.33 1.98 0.66 3 1 C4.19625 1.33 5.3925 1.66 6.625 2 C10 3 10 3 11 4 C13.32817964 4.36760731 15.6618385 4.70241581 18 5 C18.625 6.875 18.625 6.875 19 9 C17 11 17 11 13.25 11.1875 C-1.36691689 12.59522875 -13.17288126 24.15658422 -23 34 C-24.02585434 34.89348604 -25.06440266 35.77304476 -26.125 36.625 C-28.21421265 38.35087132 -30.14228039 40.03907374 -32 42 C-32.33 40.68 -32.66 39.36 -33 38 C-33.495 38.495 -33.495 38.495 -34 39 C-35.1446875 38.9071875 -35.1446875 38.9071875 -36.3125 38.8125 C-39.83713789 39.05840497 -40.69111942 40.4522697 -43 43 C-43.66 43 -44.32 43 -45 43 C-44.4964825 38.67814146 -41.74036085 35.90994421 -39 32.75 C-38.50306641 32.1722583 -38.00613281 31.5945166 -37.49414062 30.99926758 C-26.92971108 18.91138237 -14.21770298 10.23317163 0 3 C0 2.01 0 1.02 0 0 Z " fill="#96C6DA" transform="translate(225,168)"/>
<path d="M0 0 C1.32 0.33 2.64 0.66 4 1 C4.02923559 4.85415052 4.04687777 8.70827215 4.0625 12.5625 C4.07087891 13.64853516 4.07925781 14.73457031 4.08789062 15.85351562 C4.13403457 31.03487256 4.13403457 31.03487256 0.4375 36.4375 C-0.01753906 37.11683594 -0.47257812 37.79617188 -0.94140625 38.49609375 C-1.29074219 38.99238281 -1.64007813 39.48867188 -2 40 C-2.5671875 39.79503906 -3.134375 39.59007812 -3.71875 39.37890625 C-6.63633002 38.8943082 -7.88916803 39.609731 -10.5 40.9375 C-13.84442138 42.62689094 -15.07517229 43 -19 43 C-18.43959874 38.72457915 -17.38806108 35.33239144 -15.5625 31.4375 C-12.80000795 25.07418739 -11.74184355 18.86482093 -11 12 C-9.1875 11.375 -9.1875 11.375 -7 11 C-6.01 11.66 -5.02 12.32 -4 13 C-3.79503906 12.22914063 -3.59007812 11.45828125 -3.37890625 10.6640625 C-3.10949219 9.66117188 -2.84007812 8.65828125 -2.5625 7.625 C-2.29566406 6.62726563 -2.02882813 5.62953125 -1.75390625 4.6015625 C-1 2 -1 2 0 0 Z " fill="#96C5D9" transform="translate(279,223)"/>
<path d="M0 0 C0.66 3.3 1.32 6.6 2 10 C-0.31 10.33 -2.62 10.66 -5 11 C-5 10.34 -5 9.68 -5 9 C-5.99 8.67 -6.98 8.34 -8 8 C-8 7.01 -8 6.02 -8 5 C-8.66 5 -9.32 5 -10 5 C-9.01 8.63 -8.02 12.26 -7 16 C-4.36 15.67 -1.72 15.34 1 15 C0.67 16.65 0.34 18.3 0 20 C-1.65 20.33 -3.3 20.66 -5 21 C-4.34 24.63 -3.68 28.26 -3 32 C-2.34 32 -1.68 32 -1 32 C-1.495 29.525 -1.495 29.525 -2 27 C-1.34 27 -0.68 27 0 27 C0 26.01 0 25.02 0 24 C3.465 23.505 3.465 23.505 7 23 C7.66 25.97 8.32 28.94 9 32 C6.04251786 32.8364596 3.08409896 33.66929695 0.125 34.5 C-0.71675781 34.73847656 -1.55851562 34.97695313 -2.42578125 35.22265625 C-3.63427734 35.56103516 -3.63427734 35.56103516 -4.8671875 35.90625 C-5.98262939 36.22045898 -5.98262939 36.22045898 -7.12060547 36.54101562 C-9 37 -9 37 -11 37 C-11.26828613 36.18644043 -11.26828613 36.18644043 -11.54199219 35.35644531 C-12.87156079 31.34365935 -14.22461199 27.34254828 -15.640625 23.359375 C-16.17708333 21.82291667 -16.71354167 20.28645833 -17.25 18.75 C-17.53101563 17.97398437 -17.81203125 17.19796875 -18.1015625 16.3984375 C-19.53299799 12.24585733 -20.49048013 9.33279106 -19 5 C-16.2092793 4.16338138 -13.41751988 3.33057263 -10.625 2.5 C-9.8309375 2.26152344 -9.036875 2.02304688 -8.21875 1.77734375 C-7.45820313 1.55175781 -6.69765625 1.32617188 -5.9140625 1.09375 C-5.2123291 0.88427734 -4.5105957 0.67480469 -3.78759766 0.45898438 C-2 0 -2 0 0 0 Z " fill="#0B0B0B" transform="translate(417,231)"/>
<path d="M0 0 C0.99 0 1.98 0 3 0 C5.95612603 4.91191439 8.22931931 9.74381774 10.1875 15.125 C10.57711914 16.15947266 10.57711914 16.15947266 10.97460938 17.21484375 C16.15246938 31.20978321 13.77312796 46.36814219 13 61 C11.02 61.495 11.02 61.495 9 62 C7.515 56.555 7.515 56.555 6 51 C5.34 51 4.68 51 4 51 C2.66216607 50.68521554 1.32796291 50.35412344 0 50 C0 48.02 0 46.04 0 44 C0.99 44 1.98 44 3 44 C2.8604947 40.60387586 2.71227678 37.20818542 2.5625 33.8125 C2.52318359 32.85279297 2.48386719 31.89308594 2.44335938 30.90429688 C2.40146484 29.97294922 2.35957031 29.04160156 2.31640625 28.08203125 C2.26141968 26.80162964 2.26141968 26.80162964 2.20532227 25.49536133 C1.99468906 22.93545406 1.55158464 20.50666757 1 18 C2.32 17.67 3.64 17.34 5 17 C5.33 17.99 5.66 18.98 6 20 C6 15.80246074 5.23256566 13.78485136 3.5625 10 C2.10768822 6.68418967 0.74267478 3.55118055 0 0 Z " fill="#7FA94C" transform="translate(314,210)"/>
<path d="M0 0 C2.70249451 0.37275786 3.79935135 0.78448849 5.6875 2.8125 C8.46441239 7.44068732 8.74150781 12.73360931 8 18 C5.7131287 24.0818948 2.35742435 28.3919387 -3 32 C-6.125 33.25 -6.125 33.25 -9 34 C-9.66 34.185625 -10.32 34.37125 -11 34.5625 C-13.65146088 35.14250707 -16.32005398 35.57364495 -19 36 C-19.0825 35.21625 -19.165 34.4325 -19.25 33.625 C-19.72806339 30.85250896 -19.72806339 30.85250896 -22.0625 29.6875 C-22.701875 29.460625 -23.34125 29.23375 -24 29 C-23.8125 27.125 -23.8125 27.125 -23 25 C-20.46288618 23.66096771 -18.42382857 23.0326022 -15.5625 22.8125 C-12.04770502 21.69805281 -10.73940057 19.55115639 -8.484375 16.7265625 C-6.58498795 14.51727546 -4.65662176 13.18072078 -2 12 C-1.34 12.33 -0.68 12.66 0 13 C-0.33 15.31 -0.66 17.62 -1 20 C1.2477975 17.94766315 2.0022242 16.99332739 3 14 C3.06802967 12.27204648 3.08495645 10.54164635 3.0625 8.8125 C3.05347656 7.91144531 3.04445313 7.01039063 3.03515625 6.08203125 C3.02355469 5.39496094 3.01195312 4.70789063 3 4 C2.01 3.67 1.02 3.34 0 3 C0 2.01 0 1.02 0 0 Z " fill="#96C6D9" transform="translate(302,281)"/>
<path d="M0 0 C0.66 0.33 1.32 0.66 2 1 C2.4140625 3.28515625 2.4140625 3.28515625 2.625 6.0625 C2.69976562 6.98160156 2.77453125 7.90070313 2.8515625 8.84765625 C2.92503906 9.91306641 2.92503906 9.91306641 3 11 C3.99 11 4.98 11 6 11 C7.33583899 15.84241633 8.25328119 19.93437617 8 25 C8.99 25 9.98 25 11 25 C11 25.66 11 26.32 11 27 C11.61875 27.12375 12.2375 27.2475 12.875 27.375 C15 28 15 28 17 30 C19.88717605 30.6837613 19.88717605 30.6837613 23.125 31.125 C24.22070312 31.29257812 25.31640625 31.46015625 26.4453125 31.6328125 C27.28835937 31.75398438 28.13140625 31.87515625 29 32 C29 32.99 29 33.98 29 35 C25.17679443 36.42258812 22.08718695 37.24042276 18 37 C18 38.32 18 39.64 18 41 C17.01 41 16.02 41 15 41 C14.87625 41.763125 14.7525 42.52625 14.625 43.3125 C14 46 14 46 12 49 C11.01 49 10.02 49 9 49 C8.75765625 48.17757812 8.5153125 47.35515625 8.265625 46.5078125 C6.6653434 41.17764379 5.04989819 35.93904573 2.875 30.8125 C-1.08301134 21.08888159 -1.5775747 11.40977661 -1 1 C-0.67 0.67 -0.34 0.34 0 0 Z " fill="#7FA94C" transform="translate(176,256)"/>
<path d="M0 0 C12.75181708 0 24.40155237 7.00129364 34 15 C33.505 17.475 33.505 17.475 33 20 C32.34 20 31.68 20 31 20 C31.2475 21.2684375 31.2475 21.2684375 31.5 22.5625 C32.01329288 26.09138856 32.07121346 29.43932689 32 33 C30.515 33.495 30.515 33.495 29 34 C28.55269531 33.26394531 28.10539062 32.52789062 27.64453125 31.76953125 C22.350173 23.06689991 22.350173 23.06689991 14.6875 16.5625 C13 15 13 15 12.6875 11.9375 C13 9 13 9 14 7 C9.38 6.01 4.76 5.02 0 4 C0 2.68 0 1.36 0 0 Z " fill="#96C6D9" transform="translate(265,172)"/>
<path d="M0 0 C10.71428571 3.14285714 10.71428571 3.14285714 15 7 C16.3247121 11.92035923 16.08893838 16.93051209 16 22 C14.375 22.8125 14.375 22.8125 12 23 C8.63692285 20.57858445 6.30190493 18.4528574 4 15 C2.39125 15.12375 2.39125 15.12375 0.75 15.25 C-3.37349514 14.97510032 -3.84750007 14.69430483 -6.5 11.8125 C-8.52591897 9.1755896 -9.0201351 8.47317495 -8.875 5.0625 C-8.58625 4.381875 -8.2975 3.70125 -8 3 C-6.01653663 3.98732399 -4.03750023 4.98056668 -2.0703125 6 C1.88025894 8.03081584 5.72844035 9.71853211 10 11 C6.61831569 7.31993178 3.57478244 5.0214155 -1 3 C-0.67 2.01 -0.34 1.02 0 0 Z " fill="#7FA94B" transform="translate(261,191)"/>
<path d="M0 0 C1.49080078 0.02707031 1.49080078 0.02707031 3.01171875 0.0546875 C3.77097656 0.07789063 4.53023438 0.10109375 5.3125 0.125 C5.9725 1.445 6.6325 2.765 7.3125 4.125 C5.65234375 5.03645833 3.9921875 5.94791667 2.33203125 6.859375 C-4.29817921 11.01447788 -5.90439202 14.47371505 -7.9609375 21.9140625 C-8.79661769 25.60722979 -9.2688892 28.38749799 -8.6875 32.125 C-7.6975 32.785 -6.7075 33.445 -5.6875 34.125 C-6.0175 35.445 -6.3475 36.765 -6.6875 38.125 C-10.6475 37.63 -10.6475 37.63 -14.6875 37.125 C-16.08659936 32.515147 -15.15392103 28.76934202 -13.9375 24.25 C-13.68226563 23.22712891 -13.68226563 23.22712891 -13.421875 22.18359375 C-12.53633519 18.76514963 -11.5025078 15.57541414 -10.046875 12.35546875 C-8.44104876 9.12346244 -8.44104876 9.12346244 -8.6875 5.3125 C-8.6875 4.260625 -8.6875 3.20875 -8.6875 2.125 C-5.26655758 -0.15562828 -4.00562778 -0.09425007 0 0 Z " fill="#7FA94C" transform="translate(300.6875,233.875)"/>
<path d="M0 0 C0.52464844 0.45503906 1.04929687 0.91007812 1.58984375 1.37890625 C-2.62585454 2.78413901 -5.85062399 1.32312841 -9.97265625 0.12890625 C-36.59224196 -7.22392252 -63.85828712 -8.12229022 -91.22265625 -4.99609375 C-94.49766984 -4.62843247 -97.20582009 -4.6597929 -100.41015625 -5.62109375 C-100.41015625 -5.95109375 -100.41015625 -6.28109375 -100.41015625 -6.62109375 C-72.96587955 -11.55225791 -24.34926715 -16.37754598 0 0 Z " fill="#242424" transform="translate(311.41015625,59.62109375)"/>
<path d="M0 0 C17.37931034 1.37931034 17.37931034 1.37931034 21 5 C21.25 8 21.25 8 21 11 C19 13 19 13 15.734375 13.15234375 C3.64150461 12.50027721 3.64150461 12.50027721 0 9.8125 C-2 7 -2 7 -1.9375 3.75 C-1 1 -1 1 0 0 Z " fill="#658D33" transform="translate(240,285)"/>
<path d="M0 0 C30.00862887 -0.81647588 62.2447044 5.14224377 85.7890625 25.55078125 C86.90446236 26.65683419 87.96307993 27.82005647 89 29 C84.86521981 29 82.61702558 26.81179241 79.375 24.5 C64.9755811 14.64352596 49.86457561 9.19659455 33 5 C32.00871094 4.74347656 31.01742188 4.48695312 29.99609375 4.22265625 C20.25537321 2.08063584 9.93030549 2.32325726 0 2 C0 1.34 0 0.68 0 0 Z " fill="#0A0B19" transform="translate(242,122)"/>
<path d="M0 0 C0.54382324 0.18248291 1.08764648 0.36496582 1.64794922 0.55297852 C4.09736655 1.37250858 6.54831502 2.18727902 9 3 C10.1122998 3.36907471 10.1122998 3.36907471 11.24707031 3.74560547 C31.45574806 10.35764064 51.85073576 13.34123418 73 15 C73 15.66 73 16.32 73 17 C47.75904973 18.04927738 21.93574514 12.73183934 -1 2 C-0.67 1.34 -0.34 0.68 0 0 Z " fill="#1A1A1A" transform="translate(175,433)"/>
<path d="M0 0 C0.625 1.75 0.625 1.75 1 4 C0.3507041 5.34187818 -0.31731862 6.67479497 -1 8 C-1.58402133 10.41417872 -1.58402133 10.41417872 -1 13 C-0.154375 13.99 0.69125 14.98 1.5625 16 C4 19 4 19 3.8125 21.875 C3.544375 22.57625 3.27625 23.2775 3 24 C0.69 23.34 -1.62 22.68 -4 22 C-3.36020151 24.03241727 -3.36020151 24.03241727 -2 26 C0.55519921 26.81171228 0.55519921 26.81171228 3 27 C3 27.99 3 28.98 3 30 C-0.99774632 30.46485422 -2.54353115 30.34488758 -5.8125 27.875 C-8.17995652 24.76348571 -8.73114094 22.85364648 -9 19 C-8.01 19 -7.02 19 -6 19 C-6.556875 17.700625 -6.556875 17.700625 -7.125 16.375 C-8.14440048 12.44302674 -7.57312496 10.67062491 -6 7 C-5.34 7 -4.68 7 -4 7 C-3.566875 5.5459375 -3.566875 5.5459375 -3.125 4.0625 C-2 1 -2 1 0 0 Z " fill="#97C6D9" transform="translate(273,264)"/>
<path d="M0 0 C0.33 0 0.66 0 1 0 C0.41353531 5.06966143 -0.69747735 9.52543452 -2.375 14.375 C-2.60050537 15.03564453 -2.82601074 15.69628906 -3.05834961 16.37695312 C-3.97860595 19.07064421 -4.91549527 21.75844766 -5.85546875 24.4453125 C-10.51173293 37.97677635 -13.29826819 51.49096408 -14.4921875 65.734375 C-14.57710449 66.73654053 -14.66202148 67.73870605 -14.74951172 68.77124023 C-14.91498904 70.78035427 -15.07045487 72.7903209 -15.21533203 74.80102539 C-15.28864746 75.71875732 -15.36196289 76.63648926 -15.4375 77.58203125 C-15.49808594 78.40936768 -15.55867188 79.2367041 -15.62109375 80.08911133 C-15.74613281 80.71970459 -15.87117188 81.35029785 -16 82 C-16.99 82.495 -16.99 82.495 -18 83 C-19.43735657 53.9733826 -11.19455974 26.45211959 0 0 Z " fill="#1E1E1E" transform="translate(68,166)"/>
<path d="M0 0 C0.99 0 1.98 0 3 0 C3.5775 0.969375 4.155 1.93875 4.75 2.9375 C6.67686201 6.27156996 6.67686201 6.27156996 9.9375 6.625 C10.82115234 6.68107422 10.82115234 6.68107422 11.72265625 6.73828125 C14.88276709 7.10145008 17.81838209 7.93870233 20.875 8.8125 C22.57269531 9.28623047 22.57269531 9.28623047 24.3046875 9.76953125 C27 11 27 11 27.8828125 13.13671875 C27.92148438 13.75160156 27.96015625 14.36648438 28 15 C9.79028177 15.9408006 9.79028177 15.9408006 3.5390625 11.77734375 C0.61254489 8.39773585 0.26111612 4.33789683 0 0 Z " fill="#7FA84B" transform="translate(224,314)"/>
<path d="M0 0 C0.66 0 1.32 0 2 0 C2 0.66 2 1.32 2 2 C2.90878906 2.22558594 3.81757813 2.45117188 4.75390625 2.68359375 C10.30007691 4.93276284 12.69716688 9.6501255 15 15 C15.27253118 18.39690646 14.82541288 20.64332095 14 24 C11.38893404 23.64715325 9.44809818 23.30406662 7.25 21.8125 C5.48639988 19.25527983 5.19602074 17.07099161 5 14 C5.66 13.34 6.32 12.68 7 12 C4.36 9.03 1.72 6.06 -1 3 C-0.67 2.01 -0.34 1.02 0 0 Z " fill="#7FA94C" transform="translate(191,227)"/>
<path d="M0 0 C3.84660024 6.55568446 1.32494629 14.16973229 -0.45751953 21.14013672 C-2.60788482 29.08381865 -5.28089176 36.803201 -8.1875 44.5 C-8.53240479 45.41442871 -8.87730957 46.32885742 -9.23266602 47.27099609 C-11.74256293 53.74256293 -11.74256293 53.74256293 -14 56 C-15.41282566 51.76152303 -13.59894781 49.04526068 -11.9375 45.125 C-6.04664145 30.58737785 -1.52614657 15.65615878 0 0 Z " fill="#272727" transform="translate(445,278)"/>
<path d="M0 0 C0.66 0.66 1.32 1.32 2 2 C1.74399353 5.52008903 1.25416845 8.85252036 0.49145508 12.29589844 C-1.25444171 20.46628065 -1.19684886 28.50738698 -1.0625 36.8125 C-1.03467737 38.8880682 -1.01000579 40.9635592 -0.99131775 43.03923035 C-0.97369975 44.90879772 -0.94626518 46.77826515 -0.91821289 48.64770508 C-0.99672013 51.86556463 -1.38669267 54.84451726 -2 58 C-2.33 58 -2.66 58 -3 58 C-4.0869457 51.19079709 -4.22121769 44.49855421 -4.24023438 37.62402344 C-4.24984927 35.532784 -4.28089292 33.44256843 -4.3125 31.3515625 C-4.39673485 20.45375927 -2.69704292 10.56613907 0 0 Z " fill="#0D0F1A" transform="translate(126,215)"/>
<path d="M0 0 C-8.37709071 5.58472714 -20.65041299 4.27860653 -30.3125 4.1875 C-31.63056641 4.18685547 -32.94863281 4.18621094 -34.30664062 4.18554688 C-40.32046128 4.15822513 -46.05031467 3.94758274 -52 3 C-52 2.67 -52 2.34 -52 2 C-43.75573316 0.6902581 -35.58749112 0.97311747 -27.26171875 1.12695312 C-20.49942695 1.19175524 -14.254479 0.73600685 -7.62988281 -0.66235352 C-4.81666192 -1.02353849 -2.73063955 -0.70612536 0 0 Z " fill="#10121E" transform="translate(280,374)"/>
<path d="M0 0 C6.75 -0.125 6.75 -0.125 9 1 C9 1.99 9 2.98 9 4 C7.35 3.67 5.7 3.34 4 3 C3.87753906 3.57234375 3.75507813 4.1446875 3.62890625 4.734375 C2.97237132 7.09953191 2.06276488 9.07206797 0.9375 11.25 C0.57527344 11.95640625 0.21304688 12.6628125 -0.16015625 13.390625 C-0.43730469 13.92171875 -0.71445313 14.4528125 -1 15 C-1.99 15 -2.98 15 -4 15 C-3.63495936 9.33557626 -2.9445679 4.99296295 0 0 Z " fill="#7FA94C" transform="translate(180,228)"/>
<path d="M0 0 C11.67604993 1.9013751 23.11683502 17.92351085 31 26 C30.34 26.66 29.68 27.32 29 28 C28.47680176 27.46632813 27.95360352 26.93265625 27.41455078 26.3828125 C24.99023888 23.91636184 22.55769215 21.45818443 20.125 19 C19.30257813 18.16082031 18.48015625 17.32164063 17.6328125 16.45703125 C12.62429276 11.40938245 7.47930442 6.82028007 1.83154297 2.49609375 C1.22713379 2.00238281 0.62272461 1.50867188 0 1 C0 0.67 0 0.34 0 0 Z " fill="#191919" transform="translate(370,92)"/>
<path d="M0 0 C3.33810842 3.08889912 4.9967609 6.73398656 6.875 10.8125 C7.22433594 11.56499023 7.57367188 12.31748047 7.93359375 13.09277344 C16.43269466 31.69827756 16.43269466 31.69827756 16 39 C13.93258542 36.93258542 13.4501569 35.87135402 12.51953125 33.17578125 C12.24568604 32.40105469 11.97184082 31.62632812 11.68969727 30.828125 C11.40022217 29.99796875 11.11074707 29.1678125 10.8125 28.3125 C8.28468833 21.21707776 5.48989854 14.37841364 2.1340332 7.6340332 C0.77102839 4.85980685 0 3.14266991 0 0 Z " fill="#191919" transform="translate(425,155)"/>
<path d="M0 0 C3.70867456 0.30853226 7.4168669 0.62253207 11.125 0.9375 C12.17171875 1.02451172 13.2184375 1.11152344 14.296875 1.20117188 C19.23957562 1.62349123 24.12188144 2.06319868 29 3 C29 3.66 29 4.32 29 5 C25.97910522 5.02716089 22.95845871 5.04691657 19.9375 5.0625 C19.08994141 5.07087891 18.24238281 5.07925781 17.36914062 5.08789062 C12.4638278 5.10683006 7.83555245 4.83326345 3 4 C2.67 3.01 2.34 2.02 2 1 C1.34 0.67 0.68 0.34 0 0 Z " fill="#2C2C2C" transform="translate(219,445)"/>
<path d="M0 0 C1.76003535 3.02512794 2.21906417 5.03823427 2.01171875 8.51953125 C1.96466797 9.37740234 1.91761719 10.23527344 1.86914062 11.11914062 C1.77922852 12.45235352 1.77922852 12.45235352 1.6875 13.8125 C1.63916016 14.68970703 1.59082031 15.56691406 1.54101562 16.47070312 C1.25271076 21.34998924 0.95449693 26.20189128 0 31 C-0.66 31.33 -1.32 31.66 -2 32 C-2.23990235 21.11109903 -1.75445809 10.76172061 0 0 Z " fill="#292929" transform="translate(52,217)"/>
<path d="M0 0 C0.33 0 0.66 0 1 0 C1.66 10.23 2.32 20.46 3 31 C2.34 31 1.68 31 1 31 C-0.45543916 23.52787933 -1.19394132 16.34995392 -1.1875 8.75 C-1.1884668 7.62380249 -1.1884668 7.62380249 -1.18945312 6.47485352 C-1.13522493 1.13522493 -1.13522493 1.13522493 0 0 Z " fill="#191919" transform="translate(51,248)"/>
<path d="M0 0 C0 0.33 0 0.66 0 1 C-1.18335938 1.06058594 -2.36671875 1.12117188 -3.5859375 1.18359375 C-5.18231996 1.26769387 -6.77867231 1.35236671 -8.375 1.4375 C-9.19830811 1.48116699 -10.02161621 1.52483398 -10.86987305 1.56982422 C-15.20270252 1.80975428 -19.50084682 2.11967687 -23.8125 2.625 C-27.08751359 2.99266128 -29.79566384 2.96130085 -33 2 C-33 1.67 -33 1.34 -33 1 C-21.84803604 -1.4623862 -11.30546741 -0.83410228 0 0 Z " fill="#3F3F3F" transform="translate(244,52)"/>
<path d="M0 0 C0.66 0 1.32 0 2 0 C0.56459331 4.29061782 -1.5843499 7.1886981 -4.5 10.625 C-6.81844996 13.37251375 -9.00497325 16.00745988 -11 19 C-11.99 18.67 -12.98 18.34 -14 18 C-12.41727985 15.93702698 -10.83384324 13.87461051 -9.25 11.8125 C-8.8065625 11.23435547 -8.363125 10.65621094 -7.90625 10.06054688 C-7.02652191 8.91560664 -6.14438805 7.77251058 -5.25976562 6.63134766 C-4.09369132 5.12132662 -2.94451322 3.59829858 -1.796875 2.07421875 C-1.20390625 1.38972656 -0.6109375 0.70523438 0 0 Z " fill="#212121" transform="translate(99,118)"/>
<path d="M0 0 C2.0859151 0.42502027 4.16867991 0.86552046 6.25 1.3125 C7.41015625 1.55613281 8.5703125 1.79976562 9.765625 2.05078125 C12.85368022 2.95705833 14.61523474 3.8926703 17 6 C12.92151537 7.35949488 9.82319055 6.14486103 5.8125 5.0625 C5.06291016 4.86720703 4.31332031 4.67191406 3.54101562 4.47070312 C1.69206541 3.98785625 -0.15423776 3.49489367 -2 3 C-1.34 2.67 -0.68 2.34 0 2 C0 1.34 0 0.68 0 0 Z " fill="#2B2B2B" transform="translate(296,55)"/>
<path d="M0 0 C0.66 0.66 1.32 1.32 2 2 C1.53459134 8.39936902 0.19265346 14.70093708 -1 21 C-3.92697637 16.60953544 -2.81067467 13.04998256 -2 8 C-1.42268937 5.29575546 -0.7406611 2.66637995 0 0 Z " fill="#1A1F35" transform="translate(126,215)"/>
<path d="M0 0 C-1 3 -1 3 -2.67407227 4.07495117 C-3.38104248 4.39439697 -4.0880127 4.71384277 -4.81640625 5.04296875 C-5.96206055 5.56987305 -5.96206055 5.56987305 -7.13085938 6.10742188 C-7.93330078 6.46384766 -8.73574219 6.82027344 -9.5625 7.1875 C-10.77196289 7.73954102 -10.77196289 7.73954102 -12.00585938 8.30273438 C-13.99986298 9.21124489 -15.99776958 10.10980336 -18 11 C-18 10.01 -18 9.02 -18 8 C-15.3773768 6.66180502 -12.75213401 5.3292849 -10.125 4 C-9.00544922 3.42765625 -9.00544922 3.42765625 -7.86328125 2.84375 C-7.14785156 2.4828125 -6.43242187 2.121875 -5.6953125 1.75 C-5.03547363 1.41484375 -4.37563477 1.0796875 -3.69580078 0.734375 C-2 0 -2 0 0 0 Z " fill="#212121" transform="translate(349,422)"/>
<path d="M0 0 C0.99 0.33 1.98 0.66 3 1 C-1.29 5.29 -5.58 9.58 -10 14 C-10.99 13.67 -11.98 13.34 -13 13 C-8.71 8.71 -4.42 4.42 0 0 Z " fill="#1F1F1F" transform="translate(398,381)"/>
<path d="M0 0 C5.2595548 0.35657999 9.98125763 1.43164301 15 3 C15 3.66 15 4.32 15 5 C9.08507728 4.54775239 3.64800112 3.8417395 -2 2 C-1.34 1.34 -0.68 0.68 0 0 Z " fill="#2D2D2D" transform="translate(206,443)"/>
<path d="M0 0 C4.46182436 1.31074365 7.99618757 3.07066011 11.875 5.625 C12.84179688 6.25664062 13.80859375 6.88828125 14.8046875 7.5390625 C15.52914062 8.02117187 16.25359375 8.50328125 17 9 C16.67 9.66 16.34 10.32 16 11 C10.72 8.03 5.44 5.06 0 2 C0 1.34 0 0.68 0 0 Z " fill="#1E1E1E" transform="translate(142,417)"/>
<path d="M0 0 C0.38838614 2.79040505 0.76120046 5.58137886 1.125 8.375 C1.23714844 9.1690625 1.34929688 9.963125 1.46484375 10.78125 C1.72721267 12.84521885 1.87150738 14.92339351 2 17 C1.34 17.66 0.68 18.32 0 19 C-0.99 13.06 -1.98 7.12 -3 1 C-1 0 -1 0 0 0 Z " fill="#272727" transform="translate(55,278)"/>
<path d="M0 0 C2.29946417 3.44919626 2.80769035 6.1381022 3.625 10.1875 C3.88539063 11.45980469 4.14578125 12.73210937 4.4140625 14.04296875 C4.60742188 15.01878906 4.80078125 15.99460938 5 17 C4.01 17 3.02 17 2 17 C1.46585888 15.10787298 0.94821671 13.21108364 0.4375 11.3125 C0.14746094 10.25675781 -0.14257812 9.20101562 -0.44140625 8.11328125 C-1.00124767 4.99304618 -0.84690764 3.02306766 0 0 Z " fill="#2E2E2E" transform="translate(441,192)"/>
<path d="M0 0 C6.0018137 -0.21824777 11.19233704 0.4943096 17 2 C17 2.66 17 3.32 17 4 C5.47835991 3.22095672 5.47835991 3.22095672 0 1 C0 0.67 0 0.34 0 0 Z " fill="#1A1A1A" transform="translate(279,53)"/>
<path d="M0 0 C0.99 0 1.98 0 3 0 C4.09506492 3.28519475 4.09960608 5.73663415 4.0625 9.1875 C4.05347656 10.27417969 4.04445312 11.36085937 4.03515625 12.48046875 C4.02355469 13.31191406 4.01195312 14.14335937 4 15 C3.01 14.67 2.02 14.34 1 14 C1.020625 12.80375 1.04125 11.6075 1.0625 10.375 C1.06882571 6.81995131 0.69888875 3.49444376 0 0 Z " fill="#678F36" transform="translate(246,244)"/>
<path d="M0 0 C2 1 2 1 2.8515625 3.29296875 C5.41470311 12.88532831 5.41470311 12.88532831 5 18 C2.59881473 15.59881473 2.24779139 13.94503958 1.375 10.6875 C1.11460938 9.74261719 0.85421875 8.79773438 0.5859375 7.82421875 C0.02520352 5.12148098 -0.1101876 2.74968152 0 0 Z " fill="#191919" transform="translate(56,295)"/>
<path d="M0 0 C0.33 0 0.66 0 1 0 C1.45510807 6.67491831 -0.2327574 12.59374557 -2 19 C-2.33 19 -2.66 19 -3 19 C-3.23549167 12.52397908 -2.95300439 5.90600878 0 0 Z " fill="#191919" transform="translate(56,202)"/>
<path d="M0 0 C-2.93189994 2.39073149 -5.72143288 3.84107307 -9.25 5.1875 C-10.58804687 5.70376953 -10.58804687 5.70376953 -11.953125 6.23046875 C-12.62859375 6.48441406 -13.3040625 6.73835938 -14 7 C-14.66 6.34 -15.32 5.68 -16 5 C-13.90163996 3.96728358 -11.79609109 2.94916283 -9.6875 1.9375 C-8.51574219 1.36902344 -7.34398437 0.80054688 -6.13671875 0.21484375 C-3 -1 -3 -1 0 0 Z " fill="#111527" transform="translate(312,362)"/>
<path d="M0 0 C1.06863281 0.28746094 2.13726562 0.57492188 3.23828125 0.87109375 C4.04652344 1.09925781 4.85476563 1.32742187 5.6875 1.5625 C5.3575 2.2225 5.0275 2.8825 4.6875 3.5625 C2.95823126 3.25056536 1.22908956 2.93792638 -0.5 2.625 C-1.46292969 2.45097656 -2.42585938 2.27695313 -3.41796875 2.09765625 C-6.05489972 1.6101265 -8.6844905 1.09578895 -11.3125 0.5625 C-11.3125 0.2325 -11.3125 -0.0975 -11.3125 -0.4375 C-7.07924194 -1.62344057 -4.20854576 -1.15619389 0 0 Z " fill="#1B1634" transform="translate(281.3125,125.4375)"/>
<path d="M0 0 C1.25425781 0.10183594 2.50851563 0.20367187 3.80078125 0.30859375 C5.22970703 0.43427734 5.22970703 0.43427734 6.6875 0.5625 C4.6875 2.5625 4.6875 2.5625 2.55078125 2.79296875 C-2.49740511 2.70793039 -7.33574935 2.42802185 -12.3125 1.5625 C-12.3125 1.2325 -12.3125 0.9025 -12.3125 0.5625 C-8.06698144 -0.53337955 -4.3532161 -0.36615836 0 0 Z " fill="#1F2233" transform="translate(240.3125,375.4375)"/>
<path d="M0 0 C0.33 0 0.66 0 1 0 C0.67 3.63 0.34 7.26 0 11 C-0.99 11.33 -1.98 11.66 -3 12 C-3.29344873 7.01137151 -3.05887078 4.03770942 0 0 Z " fill="#7DA74A" transform="translate(212,267)"/>
<path d="M0 0 C0.99 0.495 0.99 0.495 2 1 C3.8116283 6.53023377 4.18182005 10.32726378 3 16 C2.67 16 2.34 16 2 16 C0.61470179 10.54538831 -0.2396943 5.63281599 0 0 Z " fill="#151A31" transform="translate(372,214)"/>
<path d="M0 0 C-3.06532816 2.04355211 -4.38354689 2.38658825 -7.9375 2.75 C-8.79214844 2.84796875 -9.64679688 2.9459375 -10.52734375 3.046875 C-13.23766556 2.99549449 -14.70187794 2.38633814 -17 1 C-15.10630916 0.63455089 -13.20991218 0.28310825 -11.3125 -0.0625 C-10.25675781 -0.25972656 -9.20101563 -0.45695312 -8.11328125 -0.66015625 C-5.08840784 -0.99034946 -2.92019489 -0.77474558 0 0 Z " fill="#131931" transform="translate(280,374)"/>
<path d="M0 0 C1.90389849 2.85584773 2.69462177 4.9311762 3.625 8.1875 C3.88539062 9.08855469 4.14578125 9.98960937 4.4140625 10.91796875 C4.60742188 11.60503906 4.80078125 12.29210937 5 13 C4.34 13.66 3.68 14.32 3 15 C2.29634398 13.4447088 1.61270622 11.88035173 0.9375 10.3125 C0.55464844 9.44238281 0.17179687 8.57226562 -0.22265625 7.67578125 C-1.0935848 4.67786136 -0.85006226 2.96719847 0 0 Z " fill="#292929" transform="translate(61,310)"/>
<path d="M0 0 C-0.33 0.99 -0.66 1.98 -1 3 C-5.8333472 3.08333357 -10.23692563 2.95261487 -15 2 C-15 1.67 -15 1.34 -15 1 C-9.9752761 0.37470103 -5.07471573 -0.13012092 0 0 Z " fill="#242424" transform="translate(276,446)"/>
<path d="M0 0 C0.33 0 0.66 0 1 0 C0.88512252 1.58409994 0.75765492 3.16728963 0.625 4.75 C0.52058594 6.07257813 0.52058594 6.07257813 0.4140625 7.421875 C0.00149945 9.99066382 -0.71160957 11.75841015 -2 14 C-3.55577239 8.34264585 -2.24281523 5.20333134 0 0 Z " fill="#2D2D2D" transform="translate(59,191)"/>
<path d="M0 0 C0.99 0.495 0.99 0.495 2 1 C3.2194696 6.03693964 3.16321305 10.9594101 2 16 C1.67 16 1.34 16 1 16 C0.08342019 10.61509359 -0.11138159 5.45769811 0 0 Z " fill="#202436" transform="translate(122,257)"/>
<path d="M0 0 C0.33 0 0.66 0 1 0 C0.67 3.3 0.34 6.6 0 10 C-0.99 9.67 -1.98 9.34 -3 9 C-3 8.34 -3 7.68 -3 7 C-3.66 6.67 -4.32 6.34 -5 6 C-3.35830472 3.97945196 -1.69088222 1.97956942 0 0 Z " fill="#ED538E" transform="translate(341,21)"/>
<path d="M0 0 C3.15330554 0.60694155 5.18888867 1.6416665 7.75 3.5625 C8.67039062 4.24505859 8.67039062 4.24505859 9.609375 4.94140625 C10.29773438 5.46541016 10.29773438 5.46541016 11 6 C9.234375 6.64453125 9.234375 6.64453125 7 7 C5.078125 6.07421875 5.078125 6.07421875 3.25 4.6875 C2.63640625 4.23761719 2.0228125 3.78773437 1.390625 3.32421875 C0.93171875 2.88722656 0.4728125 2.45023437 0 2 C0 1.34 0 0.68 0 0 Z " fill="#242424" transform="translate(361,85)"/>
<path d="M0 0 C0 0.66 0 1.32 0 2 C-1.4562545 2.67119549 -2.91507867 3.33681807 -4.375 4 C-5.59316406 4.556875 -5.59316406 4.556875 -6.8359375 5.125 C-9 6 -9 6 -11 6 C-10.67 5.01 -10.34 4.02 -10 3 C-6.5065403 1.25327015 -3.93154432 0 0 0 Z " fill="#1A1A1A" transform="translate(183,62)"/>
<path d="M0 0 C3.74981988 1.24993996 4.86618551 2.7230706 7 6 C6.609375 8.16796875 6.609375 8.16796875 6 10 C4.99106869 8.90398831 3.99311775 7.79786082 3 6.6875 C2.1646875 5.76517578 2.1646875 5.76517578 1.3125 4.82421875 C0 3 0 3 0 0 Z " fill="#252525" transform="translate(400,119)"/>
<path d="M0 0 C0.99 0.33 1.98 0.66 3 1 C2.21625 1.61875 1.4325 2.2375 0.625 2.875 C-1.96837647 4.89858661 -1.96837647 4.89858661 -4 7 C-6.125 6.625 -6.125 6.625 -8 6 C-6.7391988 4.96680187 -5.46596742 3.94875621 -4.1875 2.9375 C-3.47980469 2.36902344 -2.77210938 1.80054687 -2.04296875 1.21484375 C-1.36878906 0.81394531 -0.69460937 0.41304688 0 0 Z " fill="#262626" transform="translate(136,85)"/>
<path d="M0 0 C-1.45449401 1.0055761 -2.91372443 2.00430435 -4.375 3 C-5.59316406 3.8353125 -5.59316406 3.8353125 -6.8359375 4.6875 C-9 6 -9 6 -11 6 C-9.89210592 2.67631776 -9.51563783 2.38436907 -6.625 0.75 C-6.01914063 0.39421875 -5.41328125 0.0384375 -4.7890625 -0.328125 C-3 -1 -3 -1 0 0 Z " fill="#181818" transform="translate(149,80)"/>
<path d="M0 0 C2.64 0.33 5.28 0.66 8 1 C8.33 1.99 8.66 2.98 9 4 C7.02 4 5.04 4 3 4 C2.67 3.01 2.34 2.02 2 1 C1.34 0.67 0.68 0.34 0 0 Z " fill="#323232" transform="translate(219,445)"/>
<path d="M0 0 C0.33 1.32 0.66 2.64 1 4 C0.01 4.495 0.01 4.495 -1 5 C-1.73075648 7.3140622 -2.40138258 9.64828869 -3 12 C-4.10844919 8.67465243 -3.84454356 6.37817425 -3 3 C-2.34 3 -1.68 3 -1 3 C-0.67 2.01 -0.34 1.02 0 0 Z " fill="#DF4682" transform="translate(305,105)"/>
<path d="M0 0 C0.99 0.33 1.98 0.66 3 1 C-1.455 3.97 -1.455 3.97 -6 7 C-6 6.01 -6 5.02 -6 4 C-3.1875 1.75 -3.1875 1.75 0 0 Z " fill="#0A0D1B" transform="translate(176,145)"/>
<path d="M0 0 C3.91402949 1.26941497 5.79072873 2.51167694 8 6 C5.21788056 5.62403791 3.4120716 5.32681541 1.1875 3.5625 C0 2 0 2 0 0 Z " fill="#141829" transform="translate(162,342)"/>
<path d="M0 0 C2.72426311 2.35277269 3.8141763 4.62496331 5 8 C4.34 8.66 3.68 9.32 3 10 C0.96564469 6.27034861 0 4.33094958 0 0 Z " fill="#16192B" transform="translate(134,302)"/>
<path d="M0 0 C-2.90092502 1.93395001 -3.89674737 2.30131941 -7.1875 2.625 C-8.445625 2.74875 -9.70375 2.8725 -11 3 C-8.21756596 -1.17365106 -4.53441502 -0.22300402 0 0 Z " fill="#0F0F0F" transform="translate(216,54)"/>
<path d="M0 0 C0.33 0.66 0.66 1.32 1 2 C-0.98 4.31 -2.96 6.62 -5 9 C-5.66 8.67 -6.32 8.34 -7 8 C-4.69 5.36 -2.38 2.72 0 0 Z " fill="#121212" transform="translate(406,372)"/>
<path d="M0 0 C0.33 0 0.66 0 1 0 C0.88637738 1.4800841 0.75877092 2.95910074 0.625 4.4375 C0.52058594 5.67306641 0.52058594 5.67306641 0.4140625 6.93359375 C0.27742188 7.61550781 0.14078125 8.29742187 0 9 C-0.99 9.495 -0.99 9.495 -2 10 C-1.85950482 8.52031676 -1.71245174 7.04125484 -1.5625 5.5625 C-1.48128906 4.73878906 -1.40007812 3.91507812 -1.31640625 3.06640625 C-1 1 -1 1 0 0 Z " fill="#141414" transform="translate(444,291)"/>
<path d="M0 0 C3.91402949 1.26941497 5.79072873 2.51167694 8 6 C4.65750371 5.40312566 2.53563658 4.26396123 0 2 C0 1.34 0 0.68 0 0 Z " fill="#121626" transform="translate(330,151)"/>
<path d="M0 0 C0 0.66 0 1.32 0 2 C-2.31 2.33 -4.62 2.66 -7 3 C-7.33 2.01 -7.66 1.02 -8 0 C-4.94736336 -0.98120464 -3.05263664 -0.98120464 0 0 Z " fill="#333333" transform="translate(206,56)"/>
<path d="M0 0 C6.75 -0.125 6.75 -0.125 9 1 C9 1.66 9 2.32 9 3 C5.85375007 3.26218749 4.38162983 3.24754367 1.6875 1.5 C1.130625 1.005 0.57375 0.51 0 0 Z " fill="#1A1A1A" transform="translate(212,445)"/>
<path d="M0 0 C0.99 0.33 1.98 0.66 3 1 C1.35 2.65 -0.3 4.3 -2 6 C-2.99 5.67 -3.98 5.34 -5 5 C-3.35 3.35 -1.7 1.7 0 0 Z " fill="#282828" transform="translate(398,381)"/>
<path d="M0 0 C-2.375 1.5625 -2.375 1.5625 -5 3 C-7 2 -7 2 -8 0 C-4.94736336 -0.98120464 -3.05263664 -0.98120464 0 0 Z " fill="#2D2D2D" transform="translate(298,443)"/>
<path d="M0 0 C2.9375 0.8125 2.9375 0.8125 6 2 C6.33 2.99 6.66 3.98 7 5 C4.69 4.34 2.38 3.68 0 3 C0 2.01 0 1.02 0 0 Z " fill="#2F2E2F" transform="translate(175,433)"/>
<path d="M0 0 C-0.6875 1.9375 -0.6875 1.9375 -2 4 C-4.625 4.75 -4.625 4.75 -7 5 C-2.25 0 -2.25 0 0 0 Z " fill="#161A2B" transform="translate(338,342)"/>
<path d="M0 0 C0.33 0 0.66 0 1 0 C0.25 6.625 0.25 6.625 -2 10 C-3.39195915 5.82412255 -1.82323219 3.86525224 0 0 Z " fill="#242424" transform="translate(68,166)"/>
<path d="M0 0 C-0.33 0.99 -0.66 1.98 -1 3 C-3.5625 4.1875 -3.5625 4.1875 -6 5 C-6.66 4.34 -7.32 3.68 -8 3 C-2.25 0 -2.25 0 0 0 Z " fill="#191E32" transform="translate(198,133)"/>
<path d="M0 0 C-2.75924185 1.80411967 -3.88972103 2.0127245 -7.25 1.625 C-8.1575 1.41875 -9.065 1.2125 -10 1 C-6.42181037 -1.33958553 -4.07775191 -0.9267618 0 0 Z " fill="#1C223D" transform="translate(225,126)"/>
</svg>
